<mxfile host="app.diagrams.net" modified="2021-03-25T11:05:35.132Z" agent="5.0 (Windows NT 10.0; Win64; x64) AppleWebKit/537.36 (KHTML, like Gecko) Chrome/89.0.4389.90 Safari/537.36" etag="nabU1RrCcuYwk43PfCFO" version="14.4.9" type="github">
  <diagram id="LiDV-n0v9y0-zee6HtvB" name="Page-1">
    <mxGraphModel dx="1286" dy="2603" grid="1" gridSize="10" guides="1" tooltips="1" connect="1" arrows="1" fold="1" page="1" pageScale="1" pageWidth="827" pageHeight="1169" math="0" shadow="0">
      <root>
        <mxCell id="0" />
        <mxCell id="1" parent="0" />
        <mxCell id="Irn_uy4zuBTAPK6WRNLf-75" value="" style="group" vertex="1" connectable="0" parent="1">
          <mxGeometry x="-780" y="-1270" width="1570" height="1540" as="geometry" />
        </mxCell>
        <mxCell id="Irn_uy4zuBTAPK6WRNLf-131" value="" style="group" vertex="1" connectable="0" parent="Irn_uy4zuBTAPK6WRNLf-75">
          <mxGeometry width="1570" height="1540" as="geometry" />
        </mxCell>
        <mxCell id="Irn_uy4zuBTAPK6WRNLf-68" value="Suppliers Module" style="shape=module;align=left;spacingLeft=20;align=center;verticalAlign=top;fillColor=none;fontStyle=5" vertex="1" parent="Irn_uy4zuBTAPK6WRNLf-131">
          <mxGeometry width="1570" height="1540" as="geometry" />
        </mxCell>
        <mxCell id="Irn_uy4zuBTAPK6WRNLf-132" value="" style="group" vertex="1" connectable="0" parent="Irn_uy4zuBTAPK6WRNLf-131">
          <mxGeometry x="573" y="893" width="187" height="46" as="geometry" />
        </mxCell>
        <mxCell id="Irn_uy4zuBTAPK6WRNLf-127" value="1 ... *" style="text;html=1;strokeColor=none;fillColor=none;align=center;verticalAlign=middle;whiteSpace=wrap;rounded=0;" vertex="1" parent="Irn_uy4zuBTAPK6WRNLf-132">
          <mxGeometry x="147" width="40" height="20" as="geometry" />
        </mxCell>
        <mxCell id="Irn_uy4zuBTAPK6WRNLf-129" value="1 ... *" style="text;html=1;strokeColor=none;fillColor=none;align=center;verticalAlign=middle;whiteSpace=wrap;rounded=0;" vertex="1" parent="Irn_uy4zuBTAPK6WRNLf-132">
          <mxGeometry y="26" width="40" height="20" as="geometry" />
        </mxCell>
        <mxCell id="Irn_uy4zuBTAPK6WRNLf-130" value="" style="endArrow=diamondThin;endFill=0;endSize=24;html=1;entryX=0;entryY=0.25;entryDx=0;entryDy=0;exitX=1;exitY=0.25;exitDx=0;exitDy=0;" edge="1" parent="Irn_uy4zuBTAPK6WRNLf-132">
          <mxGeometry width="160" relative="1" as="geometry">
            <mxPoint y="46" as="sourcePoint" />
            <mxPoint x="210" y="20" as="targetPoint" />
            <Array as="points">
              <mxPoint x="60" y="46" />
              <mxPoint x="60" y="20" />
            </Array>
          </mxGeometry>
        </mxCell>
        <mxCell id="Irn_uy4zuBTAPK6WRNLf-67" value="" style="group" vertex="1" connectable="0" parent="Irn_uy4zuBTAPK6WRNLf-75">
          <mxGeometry x="53" y="30" width="1480" height="280" as="geometry" />
        </mxCell>
        <mxCell id="Irn_uy4zuBTAPK6WRNLf-52" value="" style="shape=folder;fontStyle=1;spacingTop=10;tabWidth=110;tabHeight=20;tabPosition=left;html=1;fillColor=none;" vertex="1" parent="Irn_uy4zuBTAPK6WRNLf-67">
          <mxGeometry width="1480" height="280" as="geometry" />
        </mxCell>
        <mxCell id="Irn_uy4zuBTAPK6WRNLf-58" value="Presentation Layer" style="text;align=center;fontStyle=1;verticalAlign=middle;spacingLeft=3;spacingRight=3;strokeColor=none;rotatable=0;points=[[0,0.5],[1,0.5]];portConstraint=eastwest;fillColor=none;" vertex="1" parent="Irn_uy4zuBTAPK6WRNLf-67">
          <mxGeometry width="110" height="20" as="geometry" />
        </mxCell>
        <mxCell id="Irn_uy4zuBTAPK6WRNLf-143" value="1" style="text;html=1;strokeColor=none;fillColor=none;align=center;verticalAlign=middle;whiteSpace=wrap;rounded=0;" vertex="1" parent="Irn_uy4zuBTAPK6WRNLf-67">
          <mxGeometry x="597" y="135" width="30" height="10" as="geometry" />
        </mxCell>
        <mxCell id="Irn_uy4zuBTAPK6WRNLf-144" value="1" style="text;html=1;strokeColor=none;fillColor=none;align=center;verticalAlign=middle;whiteSpace=wrap;rounded=0;" vertex="1" parent="Irn_uy4zuBTAPK6WRNLf-67">
          <mxGeometry x="488" y="151" width="30" height="10" as="geometry" />
        </mxCell>
        <mxCell id="Irn_uy4zuBTAPK6WRNLf-145" value="1" style="text;html=1;strokeColor=none;fillColor=none;align=center;verticalAlign=middle;whiteSpace=wrap;rounded=0;" vertex="1" parent="Irn_uy4zuBTAPK6WRNLf-67">
          <mxGeometry x="649" y="170" width="30" height="10" as="geometry" />
        </mxCell>
        <mxCell id="Irn_uy4zuBTAPK6WRNLf-146" value="1" style="text;html=1;strokeColor=none;fillColor=none;align=center;verticalAlign=middle;whiteSpace=wrap;rounded=0;" vertex="1" parent="Irn_uy4zuBTAPK6WRNLf-67">
          <mxGeometry x="648" y="135" width="30" height="10" as="geometry" />
        </mxCell>
        <mxCell id="Irn_uy4zuBTAPK6WRNLf-147" value="1" style="text;html=1;strokeColor=none;fillColor=none;align=center;verticalAlign=middle;whiteSpace=wrap;rounded=0;" vertex="1" parent="Irn_uy4zuBTAPK6WRNLf-67">
          <mxGeometry x="687" y="135" width="30" height="10" as="geometry" />
        </mxCell>
        <mxCell id="Irn_uy4zuBTAPK6WRNLf-148" value="1" style="text;html=1;strokeColor=none;fillColor=none;align=center;verticalAlign=middle;whiteSpace=wrap;rounded=0;" vertex="1" parent="Irn_uy4zuBTAPK6WRNLf-67">
          <mxGeometry x="787" y="151" width="30" height="10" as="geometry" />
        </mxCell>
        <mxCell id="Irn_uy4zuBTAPK6WRNLf-157" value="1" style="text;html=1;strokeColor=none;fillColor=none;align=center;verticalAlign=middle;whiteSpace=wrap;rounded=0;" vertex="1" parent="Irn_uy4zuBTAPK6WRNLf-67">
          <mxGeometry x="787" y="240" width="30" height="10" as="geometry" />
        </mxCell>
        <mxCell id="Irn_uy4zuBTAPK6WRNLf-158" value="1" style="text;html=1;strokeColor=none;fillColor=none;align=center;verticalAlign=middle;whiteSpace=wrap;rounded=0;" vertex="1" parent="Irn_uy4zuBTAPK6WRNLf-67">
          <mxGeometry x="657" y="240" width="30" height="10" as="geometry" />
        </mxCell>
        <mxCell id="Irn_uy4zuBTAPK6WRNLf-159" value="1" style="text;html=1;strokeColor=none;fillColor=none;align=center;verticalAlign=middle;whiteSpace=wrap;rounded=0;" vertex="1" parent="Irn_uy4zuBTAPK6WRNLf-67">
          <mxGeometry x="497" y="240" width="30" height="10" as="geometry" />
        </mxCell>
        <mxCell id="Irn_uy4zuBTAPK6WRNLf-62" value="" style="group" vertex="1" connectable="0" parent="Irn_uy4zuBTAPK6WRNLf-75">
          <mxGeometry x="133" y="380" width="1340" height="430" as="geometry" />
        </mxCell>
        <mxCell id="Irn_uy4zuBTAPK6WRNLf-31" value="Application Facade" style="text;html=1;align=center;verticalAlign=middle;resizable=0;points=[];autosize=1;" vertex="1" parent="Irn_uy4zuBTAPK6WRNLf-62">
          <mxGeometry width="120" height="20" as="geometry" />
        </mxCell>
        <mxCell id="Irn_uy4zuBTAPK6WRNLf-61" value="" style="shape=folder;fontStyle=1;spacingTop=10;tabWidth=130;tabHeight=20;tabPosition=left;html=1;fillColor=none;" vertex="1" parent="Irn_uy4zuBTAPK6WRNLf-62">
          <mxGeometry width="1340" height="430" as="geometry" />
        </mxCell>
        <mxCell id="Irn_uy4zuBTAPK6WRNLf-65" value="" style="group" vertex="1" connectable="0" parent="Irn_uy4zuBTAPK6WRNLf-75">
          <mxGeometry x="53" y="330" width="1480" height="1180" as="geometry" />
        </mxCell>
        <mxCell id="Irn_uy4zuBTAPK6WRNLf-30" value="" style="shape=folder;fontStyle=1;spacingTop=10;tabWidth=130;tabHeight=30;tabPosition=left;html=1;strokeColor=#666666;fontColor=#333333;fillColor=none;" vertex="1" parent="Irn_uy4zuBTAPK6WRNLf-65">
          <mxGeometry width="1480" height="1180" as="geometry" />
        </mxCell>
        <mxCell id="Irn_uy4zuBTAPK6WRNLf-64" value="Business Layer" style="text;align=center;fontStyle=1;verticalAlign=middle;spacingLeft=3;spacingRight=3;strokeColor=none;rotatable=0;points=[[0,0.5],[1,0.5]];portConstraint=eastwest;fillColor=none;" vertex="1" parent="Irn_uy4zuBTAPK6WRNLf-65">
          <mxGeometry x="10" width="110" height="26" as="geometry" />
        </mxCell>
        <mxCell id="Irn_uy4zuBTAPK6WRNLf-142" value="" style="group" vertex="1" connectable="0" parent="Irn_uy4zuBTAPK6WRNLf-65">
          <mxGeometry x="787" y="520" width="160" height="20" as="geometry" />
        </mxCell>
        <mxCell id="Irn_uy4zuBTAPK6WRNLf-137" value="1" style="text;html=1;strokeColor=none;fillColor=none;align=center;verticalAlign=middle;whiteSpace=wrap;rounded=0;" vertex="1" parent="Irn_uy4zuBTAPK6WRNLf-142">
          <mxGeometry x="120" width="40" height="20" as="geometry" />
        </mxCell>
        <mxCell id="Irn_uy4zuBTAPK6WRNLf-139" value="1" style="text;html=1;strokeColor=none;fillColor=none;align=center;verticalAlign=middle;whiteSpace=wrap;rounded=0;" vertex="1" parent="Irn_uy4zuBTAPK6WRNLf-142">
          <mxGeometry width="40" height="20" as="geometry" />
        </mxCell>
        <mxCell id="Irn_uy4zuBTAPK6WRNLf-141" value="" style="endArrow=diamondThin;endFill=1;endSize=24;html=1;exitX=0;exitY=0.5;exitDx=0;exitDy=0;entryX=0.5;entryY=0;entryDx=0;entryDy=0;" edge="1" parent="Irn_uy4zuBTAPK6WRNLf-142">
          <mxGeometry width="160" relative="1" as="geometry">
            <mxPoint x="153" y="20" as="sourcePoint" />
            <mxPoint x="13" y="51" as="targetPoint" />
            <Array as="points">
              <mxPoint x="13" y="20" />
            </Array>
          </mxGeometry>
        </mxCell>
        <mxCell id="Irn_uy4zuBTAPK6WRNLf-150" value="1" style="text;html=1;strokeColor=none;fillColor=none;align=center;verticalAlign=middle;whiteSpace=wrap;rounded=0;" vertex="1" parent="Irn_uy4zuBTAPK6WRNLf-65">
          <mxGeometry x="687" y="164" width="30" height="10" as="geometry" />
        </mxCell>
        <mxCell id="Irn_uy4zuBTAPK6WRNLf-153" value="1" style="text;html=1;strokeColor=none;fillColor=none;align=center;verticalAlign=middle;whiteSpace=wrap;rounded=0;" vertex="1" parent="Irn_uy4zuBTAPK6WRNLf-65">
          <mxGeometry x="587" y="164" width="30" height="10" as="geometry" />
        </mxCell>
        <mxCell id="Irn_uy4zuBTAPK6WRNLf-149" value="1" style="text;html=1;strokeColor=none;fillColor=none;align=center;verticalAlign=middle;whiteSpace=wrap;rounded=0;" vertex="1" parent="Irn_uy4zuBTAPK6WRNLf-65">
          <mxGeometry x="628" y="164" width="30" height="10" as="geometry" />
        </mxCell>
        <mxCell id="Irn_uy4zuBTAPK6WRNLf-154" value="1" style="text;html=1;strokeColor=none;fillColor=none;align=center;verticalAlign=middle;whiteSpace=wrap;rounded=0;" vertex="1" parent="Irn_uy4zuBTAPK6WRNLf-65">
          <mxGeometry x="837" y="236" width="30" height="10" as="geometry" />
        </mxCell>
        <mxCell id="Irn_uy4zuBTAPK6WRNLf-155" value="1" style="text;html=1;strokeColor=none;fillColor=none;align=center;verticalAlign=middle;whiteSpace=wrap;rounded=0;" vertex="1" parent="Irn_uy4zuBTAPK6WRNLf-65">
          <mxGeometry x="647" y="236" width="30" height="10" as="geometry" />
        </mxCell>
        <mxCell id="Irn_uy4zuBTAPK6WRNLf-156" value="1" style="text;html=1;strokeColor=none;fillColor=none;align=center;verticalAlign=middle;whiteSpace=wrap;rounded=0;" vertex="1" parent="Irn_uy4zuBTAPK6WRNLf-65">
          <mxGeometry x="457" y="236" width="30" height="10" as="geometry" />
        </mxCell>
        <mxCell id="Irn_uy4zuBTAPK6WRNLf-160" value="1" style="text;html=1;strokeColor=none;fillColor=none;align=center;verticalAlign=middle;whiteSpace=wrap;rounded=0;" vertex="1" parent="Irn_uy4zuBTAPK6WRNLf-65">
          <mxGeometry x="687" y="90" width="30" height="10" as="geometry" />
        </mxCell>
        <mxCell id="Irn_uy4zuBTAPK6WRNLf-161" value="1" style="text;html=1;strokeColor=none;fillColor=none;align=center;verticalAlign=middle;whiteSpace=wrap;rounded=0;" vertex="1" parent="Irn_uy4zuBTAPK6WRNLf-65">
          <mxGeometry x="647" y="90" width="30" height="10" as="geometry" />
        </mxCell>
        <mxCell id="Irn_uy4zuBTAPK6WRNLf-162" value="1" style="text;html=1;strokeColor=none;fillColor=none;align=center;verticalAlign=middle;whiteSpace=wrap;rounded=0;" vertex="1" parent="Irn_uy4zuBTAPK6WRNLf-65">
          <mxGeometry x="587" y="90" width="30" height="10" as="geometry" />
        </mxCell>
        <mxCell id="Irn_uy4zuBTAPK6WRNLf-332" value="1" style="text;html=1;strokeColor=none;fillColor=none;align=center;verticalAlign=middle;whiteSpace=wrap;rounded=0;" vertex="1" parent="Irn_uy4zuBTAPK6WRNLf-65">
          <mxGeometry x="457" y="324" width="30" height="10" as="geometry" />
        </mxCell>
        <mxCell id="Irn_uy4zuBTAPK6WRNLf-333" value="1" style="text;html=1;strokeColor=none;fillColor=none;align=center;verticalAlign=middle;whiteSpace=wrap;rounded=0;" vertex="1" parent="Irn_uy4zuBTAPK6WRNLf-65">
          <mxGeometry x="647" y="324" width="30" height="10" as="geometry" />
        </mxCell>
        <mxCell id="Irn_uy4zuBTAPK6WRNLf-334" value="1" style="text;html=1;strokeColor=none;fillColor=none;align=center;verticalAlign=middle;whiteSpace=wrap;rounded=0;" vertex="1" parent="Irn_uy4zuBTAPK6WRNLf-65">
          <mxGeometry x="837" y="324" width="30" height="10" as="geometry" />
        </mxCell>
        <mxCell id="Irn_uy4zuBTAPK6WRNLf-335" value="0 ... *" style="text;html=1;strokeColor=none;fillColor=none;align=center;verticalAlign=middle;whiteSpace=wrap;rounded=0;" vertex="1" parent="Irn_uy4zuBTAPK6WRNLf-65">
          <mxGeometry x="330" y="1050" width="44" height="20" as="geometry" />
        </mxCell>
        <mxCell id="Irn_uy4zuBTAPK6WRNLf-342" value="0 ... *" style="text;html=1;strokeColor=none;fillColor=none;align=center;verticalAlign=middle;whiteSpace=wrap;rounded=0;" vertex="1" parent="Irn_uy4zuBTAPK6WRNLf-65">
          <mxGeometry x="613" y="735" width="44" height="20" as="geometry" />
        </mxCell>
        <mxCell id="Irn_uy4zuBTAPK6WRNLf-343" value="0 ... *" style="text;html=1;strokeColor=none;fillColor=none;align=center;verticalAlign=middle;whiteSpace=wrap;rounded=0;" vertex="1" parent="Irn_uy4zuBTAPK6WRNLf-65">
          <mxGeometry x="837" y="550" width="44" height="20" as="geometry" />
        </mxCell>
        <mxCell id="T4Kb6JY-onlQXOTISOH4-17" value="SupplierProtocol" style="swimlane;fontStyle=0;childLayout=stackLayout;horizontal=1;startSize=26;fillColor=none;horizontalStack=0;resizeParent=1;resizeParentMax=0;resizeLast=0;collapsible=1;marginBottom=0;" parent="Irn_uy4zuBTAPK6WRNLf-65" vertex="1">
          <mxGeometry x="1167" y="690" width="170" height="52" as="geometry" />
        </mxCell>
        <mxCell id="T4Kb6JY-onlQXOTISOH4-18" value="- PermanentDays: boolean" style="text;strokeColor=none;fillColor=none;align=left;verticalAlign=top;spacingLeft=4;spacingRight=4;overflow=hidden;rotatable=0;points=[[0,0.5],[1,0.5]];portConstraint=eastwest;" parent="T4Kb6JY-onlQXOTISOH4-17" vertex="1">
          <mxGeometry y="26" width="170" height="26" as="geometry" />
        </mxCell>
        <mxCell id="57GskC2OUnDVnmpbbQjz-33" value="ByOrderSupplier" style="swimlane;fontStyle=0;childLayout=stackLayout;horizontal=1;startSize=26;fillColor=none;horizontalStack=0;resizeParent=1;resizeParentMax=0;resizeLast=0;collapsible=1;marginBottom=0;" parent="Irn_uy4zuBTAPK6WRNLf-65" vertex="1">
          <mxGeometry x="727" y="690" width="140" height="52" as="geometry" />
        </mxCell>
        <mxCell id="57GskC2OUnDVnmpbbQjz-29" value="ByselfSupplier" style="swimlane;fontStyle=0;childLayout=stackLayout;horizontal=1;startSize=26;fillColor=none;horizontalStack=0;resizeParent=1;resizeParentMax=0;resizeLast=0;collapsible=1;marginBottom=0;" parent="Irn_uy4zuBTAPK6WRNLf-65" vertex="1">
          <mxGeometry x="887" y="735" width="140" height="52" as="geometry" />
        </mxCell>
        <mxCell id="T4Kb6JY-onlQXOTISOH4-25" value="Contract" style="swimlane;fontStyle=0;childLayout=stackLayout;horizontal=1;startSize=26;fillColor=none;horizontalStack=0;resizeParent=1;resizeParentMax=0;resizeLast=0;collapsible=1;marginBottom=0;" parent="Irn_uy4zuBTAPK6WRNLf-65" vertex="1">
          <mxGeometry x="560" y="760" width="180" height="80" as="geometry" />
        </mxCell>
        <mxCell id="T4Kb6JY-onlQXOTISOH4-26" value="- Conditions: List&lt;string&gt;" style="text;strokeColor=none;fillColor=none;align=left;verticalAlign=top;spacingLeft=4;spacingRight=4;overflow=hidden;rotatable=0;points=[[0,0.5],[1,0.5]];portConstraint=eastwest;" parent="T4Kb6JY-onlQXOTISOH4-25" vertex="1">
          <mxGeometry y="26" width="180" height="26" as="geometry" />
        </mxCell>
        <mxCell id="T4Kb6JY-onlQXOTISOH4-28" value="- itemVsPrice: map&lt;item, float&gt;" style="text;strokeColor=none;fillColor=none;align=left;verticalAlign=top;spacingLeft=4;spacingRight=4;overflow=hidden;rotatable=0;points=[[0,0.5],[1,0.5]];portConstraint=eastwest;" parent="T4Kb6JY-onlQXOTISOH4-25" vertex="1">
          <mxGeometry y="52" width="180" height="28" as="geometry" />
        </mxCell>
        <mxCell id="Irn_uy4zuBTAPK6WRNLf-350" value="" style="endArrow=diamondThin;endFill=1;endSize=24;html=1;exitX=1;exitY=0.5;exitDx=0;exitDy=0;entryX=0.548;entryY=1.067;entryDx=0;entryDy=0;entryPerimeter=0;" edge="1" parent="Irn_uy4zuBTAPK6WRNLf-65" source="T4Kb6JY-onlQXOTISOH4-26" target="T4Kb6JY-onlQXOTISOH4-18">
          <mxGeometry width="160" relative="1" as="geometry">
            <mxPoint x="877" y="990" as="sourcePoint" />
            <mxPoint x="1037" y="990" as="targetPoint" />
            <Array as="points">
              <mxPoint x="1260" y="799" />
            </Array>
          </mxGeometry>
        </mxCell>
        <mxCell id="Irn_uy4zuBTAPK6WRNLf-355" value="1" style="text;html=1;strokeColor=none;fillColor=none;align=center;verticalAlign=middle;whiteSpace=wrap;rounded=0;" vertex="1" parent="Irn_uy4zuBTAPK6WRNLf-65">
          <mxGeometry x="1267" y="715" width="40" height="20" as="geometry" />
        </mxCell>
        <mxCell id="Irn_uy4zuBTAPK6WRNLf-356" value="1" style="text;html=1;strokeColor=none;fillColor=none;align=center;verticalAlign=middle;whiteSpace=wrap;rounded=0;" vertex="1" parent="Irn_uy4zuBTAPK6WRNLf-65">
          <mxGeometry x="740" y="800" width="40" height="20" as="geometry" />
        </mxCell>
        <mxCell id="Irn_uy4zuBTAPK6WRNLf-357" value="ContactPerson" style="swimlane;fontStyle=0;childLayout=stackLayout;horizontal=1;startSize=26;fillColor=none;horizontalStack=0;resizeParent=1;resizeParentMax=0;resizeLast=0;collapsible=1;marginBottom=0;strokeColor=#000000;" vertex="1" parent="Irn_uy4zuBTAPK6WRNLf-65">
          <mxGeometry x="1267" y="940" width="203" height="78" as="geometry" />
        </mxCell>
        <mxCell id="Irn_uy4zuBTAPK6WRNLf-358" value="- name: string" style="text;strokeColor=none;fillColor=none;align=left;verticalAlign=top;spacingLeft=4;spacingRight=4;overflow=hidden;rotatable=0;points=[[0,0.5],[1,0.5]];portConstraint=eastwest;" vertex="1" parent="Irn_uy4zuBTAPK6WRNLf-357">
          <mxGeometry y="26" width="203" height="26" as="geometry" />
        </mxCell>
        <mxCell id="Irn_uy4zuBTAPK6WRNLf-362" value="- conactDetails : map&lt;string,string&gt;" style="text;strokeColor=none;fillColor=none;align=left;verticalAlign=top;spacingLeft=4;spacingRight=4;overflow=hidden;rotatable=0;points=[[0,0.5],[1,0.5]];portConstraint=eastwest;" vertex="1" parent="Irn_uy4zuBTAPK6WRNLf-357">
          <mxGeometry y="52" width="203" height="26" as="geometry" />
        </mxCell>
        <mxCell id="Irn_uy4zuBTAPK6WRNLf-364" value="1 ... *" style="text;html=1;strokeColor=none;fillColor=none;align=center;verticalAlign=middle;whiteSpace=wrap;rounded=0;" vertex="1" parent="Irn_uy4zuBTAPK6WRNLf-65">
          <mxGeometry x="1367" y="920" width="40" height="20" as="geometry" />
        </mxCell>
        <mxCell id="Irn_uy4zuBTAPK6WRNLf-365" value="0 ... *" style="text;html=1;strokeColor=none;fillColor=none;align=center;verticalAlign=middle;whiteSpace=wrap;rounded=0;fontColor=#000000;" vertex="1" parent="Irn_uy4zuBTAPK6WRNLf-65">
          <mxGeometry x="1187" y="570" width="40" height="20" as="geometry" />
        </mxCell>
        <mxCell id="57GskC2OUnDVnmpbbQjz-1" value="&lt;Abstract&gt;&#xa;Supllier" style="swimlane;fontStyle=0;childLayout=stackLayout;horizontal=1;startSize=26;fillColor=none;horizontalStack=0;resizeParent=1;resizeParentMax=0;resizeLast=0;collapsible=1;marginBottom=0;" parent="Irn_uy4zuBTAPK6WRNLf-75" vertex="1">
          <mxGeometry x="783" y="900" width="140" height="52" as="geometry" />
        </mxCell>
        <mxCell id="57GskC2OUnDVnmpbbQjz-4" value="- id: int" style="text;strokeColor=none;fillColor=none;align=left;verticalAlign=top;spacingLeft=4;spacingRight=4;overflow=hidden;rotatable=0;points=[[0,0.5],[1,0.5]];portConstraint=eastwest;" parent="57GskC2OUnDVnmpbbQjz-1" vertex="1">
          <mxGeometry y="26" width="140" height="26" as="geometry" />
        </mxCell>
        <mxCell id="57GskC2OUnDVnmpbbQjz-21" value="Catalog" style="swimlane;fontStyle=0;childLayout=stackLayout;horizontal=1;startSize=26;fillColor=none;horizontalStack=0;resizeParent=1;resizeParentMax=0;resizeLast=0;collapsible=1;marginBottom=0;" parent="Irn_uy4zuBTAPK6WRNLf-75" vertex="1">
          <mxGeometry x="193" y="1120" width="150" height="52" as="geometry" />
        </mxCell>
        <mxCell id="57GskC2OUnDVnmpbbQjz-22" value="- itemVsId: map&lt;int, Item&gt;" style="text;strokeColor=none;fillColor=none;align=left;verticalAlign=top;spacingLeft=4;spacingRight=4;overflow=hidden;rotatable=0;points=[[0,0.5],[1,0.5]];portConstraint=eastwest;" parent="57GskC2OUnDVnmpbbQjz-21" vertex="1">
          <mxGeometry y="26" width="150" height="26" as="geometry" />
        </mxCell>
        <mxCell id="57GskC2OUnDVnmpbbQjz-25" value="Item" style="swimlane;fontStyle=0;childLayout=stackLayout;horizontal=1;startSize=26;fillColor=none;horizontalStack=0;resizeParent=1;resizeParentMax=0;resizeLast=0;collapsible=1;marginBottom=0;" parent="Irn_uy4zuBTAPK6WRNLf-75" vertex="1">
          <mxGeometry x="443" y="1220" width="140" height="78" as="geometry" />
        </mxCell>
        <mxCell id="57GskC2OUnDVnmpbbQjz-27" value="- Catalog: int" style="text;strokeColor=none;fillColor=none;align=left;verticalAlign=top;spacingLeft=4;spacingRight=4;overflow=hidden;rotatable=0;points=[[0,0.5],[1,0.5]];portConstraint=eastwest;" parent="57GskC2OUnDVnmpbbQjz-25" vertex="1">
          <mxGeometry y="26" width="140" height="26" as="geometry" />
        </mxCell>
        <mxCell id="57GskC2OUnDVnmpbbQjz-28" value="- Area: string" style="text;strokeColor=none;fillColor=none;align=left;verticalAlign=top;spacingLeft=4;spacingRight=4;overflow=hidden;rotatable=0;points=[[0,0.5],[1,0.5]];portConstraint=eastwest;" parent="57GskC2OUnDVnmpbbQjz-25" vertex="1">
          <mxGeometry y="52" width="140" height="26" as="geometry" />
        </mxCell>
        <mxCell id="57GskC2OUnDVnmpbbQjz-41" value="Order" style="swimlane;fontStyle=0;childLayout=stackLayout;horizontal=1;startSize=26;fillColor=none;horizontalStack=0;resizeParent=1;resizeParentMax=0;resizeLast=0;collapsible=1;marginBottom=0;" parent="Irn_uy4zuBTAPK6WRNLf-75" vertex="1">
          <mxGeometry x="443" y="1380" width="140" height="78" as="geometry" />
        </mxCell>
        <mxCell id="57GskC2OUnDVnmpbbQjz-42" value="- Date: Datetime" style="text;strokeColor=none;fillColor=none;align=left;verticalAlign=top;spacingLeft=4;spacingRight=4;overflow=hidden;rotatable=0;points=[[0,0.5],[1,0.5]];portConstraint=eastwest;" parent="57GskC2OUnDVnmpbbQjz-41" vertex="1">
          <mxGeometry y="26" width="140" height="26" as="geometry" />
        </mxCell>
        <mxCell id="57GskC2OUnDVnmpbbQjz-44" value="+ field: type" style="text;strokeColor=none;fillColor=none;align=left;verticalAlign=top;spacingLeft=4;spacingRight=4;overflow=hidden;rotatable=0;points=[[0,0.5],[1,0.5]];portConstraint=eastwest;" parent="57GskC2OUnDVnmpbbQjz-41" vertex="1">
          <mxGeometry y="52" width="140" height="26" as="geometry" />
        </mxCell>
        <mxCell id="T4Kb6JY-onlQXOTISOH4-5" value="Company" style="swimlane;fontStyle=0;childLayout=stackLayout;horizontal=1;startSize=26;fillColor=none;horizontalStack=0;resizeParent=1;resizeParentMax=0;resizeLast=0;collapsible=1;marginBottom=0;" parent="Irn_uy4zuBTAPK6WRNLf-75" vertex="1">
          <mxGeometry x="433" y="926" width="140" height="52" as="geometry" />
        </mxCell>
        <mxCell id="T4Kb6JY-onlQXOTISOH4-6" value="- id: int" style="text;strokeColor=none;fillColor=none;align=left;verticalAlign=top;spacingLeft=4;spacingRight=4;overflow=hidden;rotatable=0;points=[[0,0.5],[1,0.5]];portConstraint=eastwest;" parent="T4Kb6JY-onlQXOTISOH4-5" vertex="1">
          <mxGeometry y="26" width="140" height="26" as="geometry" />
        </mxCell>
        <mxCell id="T4Kb6JY-onlQXOTISOH4-13" value="QuantityReport" style="swimlane;fontStyle=0;childLayout=stackLayout;horizontal=1;startSize=26;fillColor=none;horizontalStack=0;resizeParent=1;resizeParentMax=0;resizeLast=0;collapsible=1;marginBottom=0;" parent="Irn_uy4zuBTAPK6WRNLf-75" vertex="1">
          <mxGeometry x="703" y="1298" width="320" height="104" as="geometry" />
        </mxCell>
        <mxCell id="T4Kb6JY-onlQXOTISOH4-14" value="- itemVsQuantityVsDiscount: map&lt;Item, map&lt;int, float&gt;&gt;" style="text;strokeColor=none;fillColor=none;align=left;verticalAlign=top;spacingLeft=4;spacingRight=4;overflow=hidden;rotatable=0;points=[[0,0.5],[1,0.5]];portConstraint=eastwest;" parent="T4Kb6JY-onlQXOTISOH4-13" vertex="1">
          <mxGeometry y="26" width="320" height="26" as="geometry" />
        </mxCell>
        <mxCell id="T4Kb6JY-onlQXOTISOH4-15" value="+ field: type" style="text;strokeColor=none;fillColor=none;align=left;verticalAlign=top;spacingLeft=4;spacingRight=4;overflow=hidden;rotatable=0;points=[[0,0.5],[1,0.5]];portConstraint=eastwest;" parent="T4Kb6JY-onlQXOTISOH4-13" vertex="1">
          <mxGeometry y="52" width="320" height="26" as="geometry" />
        </mxCell>
        <mxCell id="T4Kb6JY-onlQXOTISOH4-16" value="+ field: type" style="text;strokeColor=none;fillColor=none;align=left;verticalAlign=top;spacingLeft=4;spacingRight=4;overflow=hidden;rotatable=0;points=[[0,0.5],[1,0.5]];portConstraint=eastwest;" parent="T4Kb6JY-onlQXOTISOH4-13" vertex="1">
          <mxGeometry y="78" width="320" height="26" as="geometry" />
        </mxCell>
        <mxCell id="T4Kb6JY-onlQXOTISOH4-21" value="Extends" style="endArrow=block;endSize=16;endFill=0;html=1;exitX=0.5;exitY=0;exitDx=0;exitDy=0;" parent="Irn_uy4zuBTAPK6WRNLf-75" source="57GskC2OUnDVnmpbbQjz-33" target="57GskC2OUnDVnmpbbQjz-4" edge="1">
          <mxGeometry width="160" relative="1" as="geometry">
            <mxPoint x="893" y="1010" as="sourcePoint" />
            <mxPoint x="783" y="1060" as="targetPoint" />
          </mxGeometry>
        </mxCell>
        <mxCell id="T4Kb6JY-onlQXOTISOH4-22" value="Extends" style="endArrow=block;endSize=16;endFill=0;html=1;entryX=0.643;entryY=0.962;entryDx=0;entryDy=0;entryPerimeter=0;exitX=0.5;exitY=0;exitDx=0;exitDy=0;" parent="Irn_uy4zuBTAPK6WRNLf-75" source="57GskC2OUnDVnmpbbQjz-29" target="57GskC2OUnDVnmpbbQjz-4" edge="1">
          <mxGeometry width="160" relative="1" as="geometry">
            <mxPoint x="893" y="1310" as="sourcePoint" />
            <mxPoint x="1053" y="1310" as="targetPoint" />
            <Array as="points">
              <mxPoint x="1010" y="1040" />
              <mxPoint x="940" y="1040" />
              <mxPoint x="940" y="1000" />
              <mxPoint x="873" y="1000" />
            </Array>
          </mxGeometry>
        </mxCell>
        <mxCell id="T4Kb6JY-onlQXOTISOH4-32" value="SupplierCard" style="swimlane;fontStyle=0;childLayout=stackLayout;horizontal=1;startSize=26;fillColor=none;horizontalStack=0;resizeParent=1;resizeParentMax=0;resizeLast=0;collapsible=1;marginBottom=0;" parent="Irn_uy4zuBTAPK6WRNLf-75" vertex="1">
          <mxGeometry x="993" y="830" width="220" height="156" as="geometry" />
        </mxCell>
        <mxCell id="T4Kb6JY-onlQXOTISOH4-33" value="- name: string" style="text;strokeColor=none;fillColor=none;align=left;verticalAlign=top;spacingLeft=4;spacingRight=4;overflow=hidden;rotatable=0;points=[[0,0.5],[1,0.5]];portConstraint=eastwest;" parent="T4Kb6JY-onlQXOTISOH4-32" vertex="1">
          <mxGeometry y="26" width="220" height="26" as="geometry" />
        </mxCell>
        <mxCell id="T4Kb6JY-onlQXOTISOH4-34" value="- privateCompanyId: int" style="text;strokeColor=none;fillColor=none;align=left;verticalAlign=top;spacingLeft=4;spacingRight=4;overflow=hidden;rotatable=0;points=[[0,0.5],[1,0.5]];portConstraint=eastwest;" parent="T4Kb6JY-onlQXOTISOH4-32" vertex="1">
          <mxGeometry y="52" width="220" height="26" as="geometry" />
        </mxCell>
        <mxCell id="-8dMRDf63QIHJzTgXih5-13" value="- paymentMethod: string" style="text;strokeColor=none;fillColor=none;align=left;verticalAlign=top;spacingLeft=4;spacingRight=4;overflow=hidden;rotatable=0;points=[[0,0.5],[1,0.5]];portConstraint=eastwest;" parent="T4Kb6JY-onlQXOTISOH4-32" vertex="1">
          <mxGeometry y="78" width="220" height="26" as="geometry" />
        </mxCell>
        <mxCell id="-8dMRDf63QIHJzTgXih5-11" value="- Contacts: List&lt;ContactPerson&gt;" style="text;strokeColor=none;fillColor=none;align=left;verticalAlign=top;spacingLeft=4;spacingRight=4;overflow=hidden;rotatable=0;points=[[0,0.5],[1,0.5]];portConstraint=eastwest;" parent="T4Kb6JY-onlQXOTISOH4-32" vertex="1">
          <mxGeometry y="104" width="220" height="26" as="geometry" />
        </mxCell>
        <mxCell id="T4Kb6JY-onlQXOTISOH4-35" value="- bankAccount: string" style="text;strokeColor=none;fillColor=none;align=left;verticalAlign=top;spacingLeft=4;spacingRight=4;overflow=hidden;rotatable=0;points=[[0,0.5],[1,0.5]];portConstraint=eastwest;" parent="T4Kb6JY-onlQXOTISOH4-32" vertex="1">
          <mxGeometry y="130" width="220" height="26" as="geometry" />
        </mxCell>
        <mxCell id="T4Kb6JY-onlQXOTISOH4-41" value="" style="endArrow=diamondThin;endFill=1;endSize=24;html=1;exitX=0;exitY=0.5;exitDx=0;exitDy=0;entryX=0.5;entryY=0;entryDx=0;entryDy=0;" parent="Irn_uy4zuBTAPK6WRNLf-75" source="T4Kb6JY-onlQXOTISOH4-33" target="57GskC2OUnDVnmpbbQjz-1" edge="1">
          <mxGeometry width="160" relative="1" as="geometry">
            <mxPoint x="893" y="1030" as="sourcePoint" />
            <mxPoint x="933" y="960" as="targetPoint" />
            <Array as="points">
              <mxPoint x="853" y="869" />
            </Array>
          </mxGeometry>
        </mxCell>
        <mxCell id="-8dMRDf63QIHJzTgXih5-6" value="" style="endArrow=diamondThin;endFill=0;endSize=24;html=1;entryX=0;entryY=0.25;entryDx=0;entryDy=0;exitX=1;exitY=0.25;exitDx=0;exitDy=0;" parent="Irn_uy4zuBTAPK6WRNLf-75" source="T4Kb6JY-onlQXOTISOH4-5" target="57GskC2OUnDVnmpbbQjz-1" edge="1">
          <mxGeometry width="160" relative="1" as="geometry">
            <mxPoint x="583" y="933" as="sourcePoint" />
            <mxPoint x="783" y="939" as="targetPoint" />
            <Array as="points">
              <mxPoint x="633" y="939" />
              <mxPoint x="633" y="913" />
            </Array>
          </mxGeometry>
        </mxCell>
        <mxCell id="T4Kb6JY-onlQXOTISOH4-9" value="manufacturer" style="swimlane;fontStyle=0;childLayout=stackLayout;horizontal=1;startSize=26;fillColor=none;horizontalStack=0;resizeParent=1;resizeParentMax=0;resizeLast=0;collapsible=1;marginBottom=0;" parent="Irn_uy4zuBTAPK6WRNLf-75" vertex="1">
          <mxGeometry x="203" y="1220" width="140" height="52" as="geometry" />
        </mxCell>
        <mxCell id="T4Kb6JY-onlQXOTISOH4-10" value="+ field: type" style="text;strokeColor=none;fillColor=none;align=left;verticalAlign=top;spacingLeft=4;spacingRight=4;overflow=hidden;rotatable=0;points=[[0,0.5],[1,0.5]];portConstraint=eastwest;" parent="T4Kb6JY-onlQXOTISOH4-9" vertex="1">
          <mxGeometry y="26" width="140" height="26" as="geometry" />
        </mxCell>
        <mxCell id="-8dMRDf63QIHJzTgXih5-30" value="" style="endArrow=diamondThin;endFill=1;endSize=24;html=1;fontColor=#FF3333;entryX=0;entryY=0.75;entryDx=0;entryDy=0;exitX=0.75;exitY=0;exitDx=0;exitDy=0;" parent="Irn_uy4zuBTAPK6WRNLf-75" source="T4Kb6JY-onlQXOTISOH4-25" target="57GskC2OUnDVnmpbbQjz-1" edge="1">
          <mxGeometry width="160" relative="1" as="geometry">
            <mxPoint x="748" y="1050" as="sourcePoint" />
            <mxPoint x="783" y="965" as="targetPoint" />
            <Array as="points">
              <mxPoint x="748" y="939" />
            </Array>
          </mxGeometry>
        </mxCell>
        <mxCell id="-8dMRDf63QIHJzTgXih5-33" value="" style="endArrow=diamondThin;endFill=0;endSize=24;html=1;fontColor=#FF3333;exitX=1;exitY=0.5;exitDx=0;exitDy=0;entryX=0;entryY=0.5;entryDx=0;entryDy=0;" parent="Irn_uy4zuBTAPK6WRNLf-75" source="57GskC2OUnDVnmpbbQjz-27" target="T4Kb6JY-onlQXOTISOH4-14" edge="1">
          <mxGeometry width="160" relative="1" as="geometry">
            <mxPoint x="763" y="1480" as="sourcePoint" />
            <mxPoint x="923" y="1480" as="targetPoint" />
            <Array as="points">
              <mxPoint x="623" y="1259" />
              <mxPoint x="623" y="1337" />
            </Array>
          </mxGeometry>
        </mxCell>
        <mxCell id="-8dMRDf63QIHJzTgXih5-38" value="" style="endArrow=diamondThin;endFill=1;endSize=24;html=1;fontColor=#FF3333;entryX=0.25;entryY=0;entryDx=0;entryDy=0;exitX=0.5;exitY=0;exitDx=0;exitDy=0;" parent="Irn_uy4zuBTAPK6WRNLf-75" source="57GskC2OUnDVnmpbbQjz-21" target="57GskC2OUnDVnmpbbQjz-1" edge="1">
          <mxGeometry width="160" relative="1" as="geometry">
            <mxPoint x="193" y="1140" as="sourcePoint" />
            <mxPoint x="183" y="940" as="targetPoint" />
            <Array as="points">
              <mxPoint x="268" y="850" />
              <mxPoint x="818" y="850" />
            </Array>
          </mxGeometry>
        </mxCell>
        <mxCell id="Irn_uy4zuBTAPK6WRNLf-34" value="Controls" style="endArrow=open;endSize=12;html=1;exitX=0.5;exitY=1;exitDx=0;exitDy=0;entryX=0;entryY=0.25;entryDx=0;entryDy=0;" edge="1" parent="Irn_uy4zuBTAPK6WRNLf-75" source="Irn_uy4zuBTAPK6WRNLf-1" target="57GskC2OUnDVnmpbbQjz-41">
          <mxGeometry x="-0.0013" width="160" relative="1" as="geometry">
            <mxPoint x="1233" y="590" as="sourcePoint" />
            <mxPoint x="103" y="1440" as="targetPoint" />
            <Array as="points">
              <mxPoint x="513" y="700" />
              <mxPoint x="103" y="700" />
              <mxPoint x="103" y="1400" />
            </Array>
            <mxPoint as="offset" />
          </mxGeometry>
        </mxCell>
        <mxCell id="Irn_uy4zuBTAPK6WRNLf-35" value="Controls" style="endArrow=open;endSize=12;html=1;exitX=0.5;exitY=1;exitDx=0;exitDy=0;entryX=0.5;entryY=0;entryDx=0;entryDy=0;" edge="1" parent="Irn_uy4zuBTAPK6WRNLf-75" source="Irn_uy4zuBTAPK6WRNLf-13" target="T4Kb6JY-onlQXOTISOH4-25">
          <mxGeometry x="-0.1055" width="160" relative="1" as="geometry">
            <mxPoint x="1243" y="600" as="sourcePoint" />
            <mxPoint x="703" y="1050" as="targetPoint" />
            <mxPoint as="offset" />
          </mxGeometry>
        </mxCell>
        <mxCell id="Irn_uy4zuBTAPK6WRNLf-37" value="Controls" style="endArrow=open;endSize=12;html=1;exitX=0.5;exitY=1;exitDx=0;exitDy=0;entryX=0.75;entryY=0;entryDx=0;entryDy=0;" edge="1" parent="Irn_uy4zuBTAPK6WRNLf-75" source="Irn_uy4zuBTAPK6WRNLf-9" target="57GskC2OUnDVnmpbbQjz-1">
          <mxGeometry x="-0.4518" y="1" width="160" relative="1" as="geometry">
            <mxPoint x="893" y="700" as="sourcePoint" />
            <mxPoint x="888" y="900" as="targetPoint" />
            <Array as="points" />
            <mxPoint as="offset" />
          </mxGeometry>
        </mxCell>
        <mxCell id="Irn_uy4zuBTAPK6WRNLf-56" value="" style="group" vertex="1" connectable="0" parent="Irn_uy4zuBTAPK6WRNLf-75">
          <mxGeometry x="478" y="112" width="460" height="152" as="geometry" />
        </mxCell>
        <mxCell id="Irn_uy4zuBTAPK6WRNLf-38" value="MainMenu" style="swimlane;fontStyle=0;childLayout=stackLayout;horizontal=1;startSize=26;fillColor=none;horizontalStack=0;resizeParent=1;resizeParentMax=0;resizeLast=0;collapsible=1;marginBottom=0;" vertex="1" parent="Irn_uy4zuBTAPK6WRNLf-56">
          <mxGeometry x="160" width="140" height="52" as="geometry" />
        </mxCell>
        <mxCell id="Irn_uy4zuBTAPK6WRNLf-42" value="OrdersMenu" style="swimlane;fontStyle=0;childLayout=stackLayout;horizontal=1;startSize=26;fillColor=none;horizontalStack=0;resizeParent=1;resizeParentMax=0;resizeLast=0;collapsible=1;marginBottom=0;" vertex="1" parent="Irn_uy4zuBTAPK6WRNLf-56">
          <mxGeometry y="100" width="140" height="52" as="geometry" />
        </mxCell>
        <mxCell id="Irn_uy4zuBTAPK6WRNLf-43" value="ContractsMenu" style="swimlane;fontStyle=0;childLayout=stackLayout;horizontal=1;startSize=26;fillColor=none;horizontalStack=0;resizeParent=1;resizeParentMax=0;resizeLast=0;collapsible=1;marginBottom=0;" vertex="1" parent="Irn_uy4zuBTAPK6WRNLf-56">
          <mxGeometry x="160" y="100" width="140" height="52" as="geometry" />
        </mxCell>
        <mxCell id="Irn_uy4zuBTAPK6WRNLf-44" value="SuppliersMenu" style="swimlane;fontStyle=0;childLayout=stackLayout;horizontal=1;startSize=26;fillColor=none;horizontalStack=0;resizeParent=1;resizeParentMax=0;resizeLast=0;collapsible=1;marginBottom=0;" vertex="1" parent="Irn_uy4zuBTAPK6WRNLf-56">
          <mxGeometry x="320" y="100" width="140" height="52" as="geometry" />
        </mxCell>
        <mxCell id="Irn_uy4zuBTAPK6WRNLf-48" value="subMenu" style="endArrow=open;endSize=12;html=1;exitX=0.25;exitY=1;exitDx=0;exitDy=0;entryX=0.5;entryY=0;entryDx=0;entryDy=0;" edge="1" parent="Irn_uy4zuBTAPK6WRNLf-56" source="Irn_uy4zuBTAPK6WRNLf-38" target="Irn_uy4zuBTAPK6WRNLf-42">
          <mxGeometry x="-0.1561" width="160" relative="1" as="geometry">
            <mxPoint x="90" y="80" as="sourcePoint" />
            <mxPoint x="250" y="80" as="targetPoint" />
            <Array as="points">
              <mxPoint x="195" y="80" />
              <mxPoint x="70" y="80" />
            </Array>
            <mxPoint as="offset" />
          </mxGeometry>
        </mxCell>
        <mxCell id="Irn_uy4zuBTAPK6WRNLf-49" value="subMenu" style="endArrow=open;endSize=12;html=1;exitX=0.75;exitY=1;exitDx=0;exitDy=0;entryX=0.5;entryY=0;entryDx=0;entryDy=0;" edge="1" parent="Irn_uy4zuBTAPK6WRNLf-56" source="Irn_uy4zuBTAPK6WRNLf-38" target="Irn_uy4zuBTAPK6WRNLf-44">
          <mxGeometry x="-0.0405" width="160" relative="1" as="geometry">
            <mxPoint x="90" y="80" as="sourcePoint" />
            <mxPoint x="250" y="80" as="targetPoint" />
            <Array as="points">
              <mxPoint x="265" y="80" />
              <mxPoint x="390" y="80" />
            </Array>
            <mxPoint as="offset" />
          </mxGeometry>
        </mxCell>
        <mxCell id="Irn_uy4zuBTAPK6WRNLf-50" value="subMenu" style="endArrow=open;endSize=12;html=1;exitX=0.5;exitY=1;exitDx=0;exitDy=0;entryX=0.5;entryY=0;entryDx=0;entryDy=0;" edge="1" parent="Irn_uy4zuBTAPK6WRNLf-56" source="Irn_uy4zuBTAPK6WRNLf-38" target="Irn_uy4zuBTAPK6WRNLf-43">
          <mxGeometry width="160" relative="1" as="geometry">
            <mxPoint x="90" y="80" as="sourcePoint" />
            <mxPoint x="250" y="80" as="targetPoint" />
          </mxGeometry>
        </mxCell>
        <mxCell id="Irn_uy4zuBTAPK6WRNLf-1" value="OrderController" style="swimlane;fontStyle=0;childLayout=stackLayout;horizontal=1;startSize=26;fillColor=none;horizontalStack=0;resizeParent=1;resizeParentMax=0;resizeLast=0;collapsible=1;marginBottom=0;" vertex="1" parent="Irn_uy4zuBTAPK6WRNLf-75">
          <mxGeometry x="443" y="600" width="140" height="52" as="geometry" />
        </mxCell>
        <mxCell id="Irn_uy4zuBTAPK6WRNLf-9" value="SupplierController" style="swimlane;fontStyle=0;childLayout=stackLayout;horizontal=1;startSize=26;fillColor=none;horizontalStack=0;resizeParent=1;resizeParentMax=0;resizeLast=0;collapsible=1;marginBottom=0;" vertex="1" parent="Irn_uy4zuBTAPK6WRNLf-75">
          <mxGeometry x="823" y="600" width="140" height="52" as="geometry" />
        </mxCell>
        <mxCell id="Irn_uy4zuBTAPK6WRNLf-13" value="ContractController" style="swimlane;fontStyle=0;childLayout=stackLayout;horizontal=1;startSize=26;fillColor=none;horizontalStack=0;resizeParent=1;resizeParentMax=0;resizeLast=0;collapsible=1;marginBottom=0;" vertex="1" parent="Irn_uy4zuBTAPK6WRNLf-75">
          <mxGeometry x="633" y="600" width="140" height="52" as="geometry" />
        </mxCell>
        <mxCell id="Irn_uy4zuBTAPK6WRNLf-17" value="Application Facade" style="swimlane;fontStyle=0;childLayout=stackLayout;horizontal=1;startSize=26;fillColor=none;horizontalStack=0;resizeParent=1;resizeParentMax=0;resizeLast=0;collapsible=1;marginBottom=0;" vertex="1" parent="Irn_uy4zuBTAPK6WRNLf-75">
          <mxGeometry x="633" y="440" width="140" height="52" as="geometry" />
        </mxCell>
        <mxCell id="Irn_uy4zuBTAPK6WRNLf-22" value="navigate" style="endArrow=open;endSize=12;html=1;exitX=0.5;exitY=1;exitDx=0;exitDy=0;entryX=0.5;entryY=0;entryDx=0;entryDy=0;" edge="1" parent="Irn_uy4zuBTAPK6WRNLf-75" source="Irn_uy4zuBTAPK6WRNLf-17" target="Irn_uy4zuBTAPK6WRNLf-13">
          <mxGeometry x="213" y="330" width="160" as="geometry">
            <mxPoint x="253" y="344" as="sourcePoint" />
            <mxPoint x="413" y="344" as="targetPoint" />
          </mxGeometry>
        </mxCell>
        <mxCell id="Irn_uy4zuBTAPK6WRNLf-23" value="navigate" style="endArrow=open;endSize=12;html=1;exitX=0.25;exitY=1;exitDx=0;exitDy=0;entryX=0.5;entryY=0;entryDx=0;entryDy=0;" edge="1" parent="Irn_uy4zuBTAPK6WRNLf-75" source="Irn_uy4zuBTAPK6WRNLf-17" target="Irn_uy4zuBTAPK6WRNLf-1">
          <mxGeometry x="213" y="330" width="160" as="geometry">
            <mxPoint x="263" y="354" as="sourcePoint" />
            <mxPoint x="423" y="354" as="targetPoint" />
            <Array as="points">
              <mxPoint x="668" y="560" />
              <mxPoint x="513" y="560" />
            </Array>
          </mxGeometry>
        </mxCell>
        <mxCell id="Irn_uy4zuBTAPK6WRNLf-26" value="navigate" style="endArrow=open;endSize=12;html=1;exitX=0.75;exitY=1;exitDx=0;exitDy=0;entryX=0.5;entryY=0;entryDx=0;entryDy=0;" edge="1" parent="Irn_uy4zuBTAPK6WRNLf-75" source="Irn_uy4zuBTAPK6WRNLf-17" target="Irn_uy4zuBTAPK6WRNLf-9">
          <mxGeometry x="213" y="330" width="160" as="geometry">
            <mxPoint x="533" y="580" as="sourcePoint" />
            <mxPoint x="693" y="580" as="targetPoint" />
            <Array as="points">
              <mxPoint x="738" y="560" />
              <mxPoint x="893" y="560" />
            </Array>
            <mxPoint as="offset" />
          </mxGeometry>
        </mxCell>
        <mxCell id="Irn_uy4zuBTAPK6WRNLf-63" value="Business Layer" style="text;align=center;fontStyle=1;verticalAlign=middle;spacingLeft=3;spacingRight=3;strokeColor=none;rotatable=0;points=[[0,0.5],[1,0.5]];portConstraint=eastwest;fillColor=none;" vertex="1" parent="Irn_uy4zuBTAPK6WRNLf-75">
          <mxGeometry x="63" y="330" width="110" height="26" as="geometry" />
        </mxCell>
        <mxCell id="Irn_uy4zuBTAPK6WRNLf-72" value="Displays" style="endArrow=open;endSize=12;html=1;exitX=0.5;exitY=1;exitDx=0;exitDy=0;entryX=0.25;entryY=0;entryDx=0;entryDy=0;" edge="1" parent="Irn_uy4zuBTAPK6WRNLf-75" source="Irn_uy4zuBTAPK6WRNLf-42" target="Irn_uy4zuBTAPK6WRNLf-17">
          <mxGeometry x="-0.25" width="160" relative="1" as="geometry">
            <mxPoint x="1070" as="sourcePoint" />
            <mxPoint x="943" y="360" as="targetPoint" />
            <Array as="points">
              <mxPoint x="548" y="300" />
              <mxPoint x="668" y="300" />
            </Array>
            <mxPoint as="offset" />
          </mxGeometry>
        </mxCell>
        <mxCell id="Irn_uy4zuBTAPK6WRNLf-73" value="Displays" style="endArrow=open;endSize=12;html=1;exitX=0.5;exitY=1;exitDx=0;exitDy=0;entryX=0.75;entryY=0;entryDx=0;entryDy=0;" edge="1" parent="Irn_uy4zuBTAPK6WRNLf-75" source="Irn_uy4zuBTAPK6WRNLf-44" target="Irn_uy4zuBTAPK6WRNLf-17">
          <mxGeometry x="-0.2549" width="160" relative="1" as="geometry">
            <mxPoint x="557.9999999999998" y="274" as="sourcePoint" />
            <mxPoint x="953" y="370" as="targetPoint" />
            <Array as="points">
              <mxPoint x="868" y="300" />
              <mxPoint x="738" y="300" />
            </Array>
            <mxPoint as="offset" />
          </mxGeometry>
        </mxCell>
        <mxCell id="Irn_uy4zuBTAPK6WRNLf-74" value="Displays" style="endArrow=open;endSize=12;html=1;exitX=0.5;exitY=1;exitDx=0;exitDy=0;entryX=0.5;entryY=0;entryDx=0;entryDy=0;" edge="1" parent="Irn_uy4zuBTAPK6WRNLf-75" source="Irn_uy4zuBTAPK6WRNLf-43" target="Irn_uy4zuBTAPK6WRNLf-17">
          <mxGeometry x="-0.2506" y="2" width="160" relative="1" as="geometry">
            <mxPoint x="567.9999999999998" y="284" as="sourcePoint" />
            <mxPoint x="963" y="380" as="targetPoint" />
            <mxPoint as="offset" />
          </mxGeometry>
        </mxCell>
        <mxCell id="Irn_uy4zuBTAPK6WRNLf-79" value="" style="group" vertex="1" connectable="0" parent="Irn_uy4zuBTAPK6WRNLf-75">
          <mxGeometry x="583" y="1350" width="104" height="95" as="geometry" />
        </mxCell>
        <mxCell id="-8dMRDf63QIHJzTgXih5-36" value="&lt;font color=&quot;#000000&quot;&gt;discountApply&lt;/font&gt;" style="endArrow=open;endSize=12;html=1;fontColor=#FF3333;exitX=1;exitY=0.5;exitDx=0;exitDy=0;entryX=0;entryY=0.5;entryDx=0;entryDy=0;" parent="Irn_uy4zuBTAPK6WRNLf-79" target="T4Kb6JY-onlQXOTISOH4-15" edge="1">
          <mxGeometry x="-0.1584" width="160" relative="1" as="geometry">
            <mxPoint y="95" as="sourcePoint" />
            <mxPoint x="80" y="130" as="targetPoint" />
            <Array as="points">
              <mxPoint x="40" y="95" />
              <mxPoint x="40" y="13" />
            </Array>
            <mxPoint as="offset" />
          </mxGeometry>
        </mxCell>
        <mxCell id="Irn_uy4zuBTAPK6WRNLf-76" value="0 ... *" style="text;html=1;strokeColor=none;fillColor=none;align=center;verticalAlign=middle;whiteSpace=wrap;rounded=0;" vertex="1" parent="Irn_uy4zuBTAPK6WRNLf-79">
          <mxGeometry y="80" width="37" height="10" as="geometry" />
        </mxCell>
        <mxCell id="Irn_uy4zuBTAPK6WRNLf-78" value="0 ... 1" style="text;html=1;strokeColor=none;fillColor=none;align=center;verticalAlign=middle;whiteSpace=wrap;rounded=0;" vertex="1" parent="Irn_uy4zuBTAPK6WRNLf-79">
          <mxGeometry x="67" width="37" height="10" as="geometry" />
        </mxCell>
        <mxCell id="Irn_uy4zuBTAPK6WRNLf-80" value="0 ... 1" style="text;html=1;strokeColor=none;fillColor=none;align=center;verticalAlign=middle;whiteSpace=wrap;rounded=0;" vertex="1" parent="Irn_uy4zuBTAPK6WRNLf-75">
          <mxGeometry x="643" y="1326" width="37" height="10" as="geometry" />
        </mxCell>
        <mxCell id="Irn_uy4zuBTAPK6WRNLf-81" value="0 ... *" style="text;html=1;strokeColor=none;fillColor=none;align=center;verticalAlign=middle;whiteSpace=wrap;rounded=0;" vertex="1" parent="Irn_uy4zuBTAPK6WRNLf-75">
          <mxGeometry x="581" y="1248" width="37" height="10" as="geometry" />
        </mxCell>
        <mxCell id="Irn_uy4zuBTAPK6WRNLf-85" value="" style="group" vertex="1" connectable="0" parent="Irn_uy4zuBTAPK6WRNLf-75">
          <mxGeometry x="581" y="1248" width="99" height="89" as="geometry" />
        </mxCell>
        <mxCell id="Irn_uy4zuBTAPK6WRNLf-82" value="0 ... *" style="text;html=1;strokeColor=none;fillColor=none;align=center;verticalAlign=middle;whiteSpace=wrap;rounded=0;" vertex="1" parent="Irn_uy4zuBTAPK6WRNLf-85">
          <mxGeometry width="37" height="10" as="geometry" />
        </mxCell>
        <mxCell id="Irn_uy4zuBTAPK6WRNLf-83" value="" style="endArrow=diamondThin;endFill=0;endSize=24;html=1;fontColor=#FF3333;exitX=1;exitY=0.5;exitDx=0;exitDy=0;entryX=0;entryY=0.5;entryDx=0;entryDy=0;" edge="1" parent="Irn_uy4zuBTAPK6WRNLf-85">
          <mxGeometry width="160" relative="1" as="geometry">
            <mxPoint x="2" y="11" as="sourcePoint" />
            <mxPoint x="122" y="89" as="targetPoint" />
            <Array as="points">
              <mxPoint x="42" y="11" />
              <mxPoint x="42" y="89" />
            </Array>
          </mxGeometry>
        </mxCell>
        <mxCell id="Irn_uy4zuBTAPK6WRNLf-84" value="0 ... 1" style="text;html=1;strokeColor=none;fillColor=none;align=center;verticalAlign=middle;whiteSpace=wrap;rounded=0;" vertex="1" parent="Irn_uy4zuBTAPK6WRNLf-85">
          <mxGeometry x="62" y="78" width="37" height="10" as="geometry" />
        </mxCell>
        <mxCell id="Irn_uy4zuBTAPK6WRNLf-90" value="" style="group" vertex="1" connectable="0" parent="Irn_uy4zuBTAPK6WRNLf-75">
          <mxGeometry x="543" y="1105" width="47" height="115" as="geometry" />
        </mxCell>
        <mxCell id="Irn_uy4zuBTAPK6WRNLf-88" value="1 ... *" style="text;html=1;strokeColor=none;fillColor=none;align=center;verticalAlign=middle;whiteSpace=wrap;rounded=0;" vertex="1" parent="Irn_uy4zuBTAPK6WRNLf-90">
          <mxGeometry y="105" width="40" height="10" as="geometry" />
        </mxCell>
        <mxCell id="Irn_uy4zuBTAPK6WRNLf-89" value="0 ... *" style="text;html=1;strokeColor=none;fillColor=none;align=center;verticalAlign=middle;whiteSpace=wrap;rounded=0;" vertex="1" parent="Irn_uy4zuBTAPK6WRNLf-90">
          <mxGeometry x="7" y="38" width="40" height="10" as="geometry" />
        </mxCell>
        <mxCell id="Irn_uy4zuBTAPK6WRNLf-91" value="" style="group" vertex="1" connectable="0" parent="Irn_uy4zuBTAPK6WRNLf-75">
          <mxGeometry x="510" y="1300" width="40" height="55" as="geometry" />
        </mxCell>
        <mxCell id="-8dMRDf63QIHJzTgXih5-37" value="" style="endArrow=diamondThin;endFill=0;endSize=24;html=1;fontColor=#FF3333;entryX=0.5;entryY=0;entryDx=0;entryDy=0;" parent="Irn_uy4zuBTAPK6WRNLf-91" source="57GskC2OUnDVnmpbbQjz-28" target="57GskC2OUnDVnmpbbQjz-41" edge="1">
          <mxGeometry width="160" relative="1" as="geometry">
            <mxPoint x="-27" y="30" as="sourcePoint" />
            <mxPoint x="3" y="80" as="targetPoint" />
          </mxGeometry>
        </mxCell>
        <mxCell id="Irn_uy4zuBTAPK6WRNLf-86" value="1 ... *" style="text;html=1;strokeColor=none;fillColor=none;align=center;verticalAlign=middle;whiteSpace=wrap;rounded=0;" vertex="1" parent="Irn_uy4zuBTAPK6WRNLf-91">
          <mxGeometry width="40" height="10" as="geometry" />
        </mxCell>
        <mxCell id="Irn_uy4zuBTAPK6WRNLf-87" value="0 ... *" style="text;html=1;strokeColor=none;fillColor=none;align=center;verticalAlign=middle;whiteSpace=wrap;rounded=0;" vertex="1" parent="Irn_uy4zuBTAPK6WRNLf-91">
          <mxGeometry y="45" width="40" height="10" as="geometry" />
        </mxCell>
        <mxCell id="Irn_uy4zuBTAPK6WRNLf-92" value="1 ... *" style="text;html=1;strokeColor=none;fillColor=none;align=center;verticalAlign=middle;whiteSpace=wrap;rounded=0;" vertex="1" parent="Irn_uy4zuBTAPK6WRNLf-75">
          <mxGeometry x="472" y="1209" width="40" height="10" as="geometry" />
        </mxCell>
        <mxCell id="Irn_uy4zuBTAPK6WRNLf-93" value="1" style="text;html=1;strokeColor=none;fillColor=none;align=center;verticalAlign=middle;whiteSpace=wrap;rounded=0;" vertex="1" parent="Irn_uy4zuBTAPK6WRNLf-75">
          <mxGeometry x="467" y="1000" width="50" height="10" as="geometry" />
        </mxCell>
        <mxCell id="Irn_uy4zuBTAPK6WRNLf-95" value="1" style="text;html=1;strokeColor=none;fillColor=none;align=center;verticalAlign=middle;whiteSpace=wrap;rounded=0;" vertex="1" parent="Irn_uy4zuBTAPK6WRNLf-75">
          <mxGeometry x="467" y="1000" width="50" height="10" as="geometry" />
        </mxCell>
        <mxCell id="Irn_uy4zuBTAPK6WRNLf-98" value="" style="group" vertex="1" connectable="0" parent="Irn_uy4zuBTAPK6WRNLf-75">
          <mxGeometry x="467" y="978" width="50" height="241" as="geometry" />
        </mxCell>
        <mxCell id="-8dMRDf63QIHJzTgXih5-7" value="" style="endArrow=diamondThin;endFill=1;endSize=24;html=1;exitX=0.5;exitY=0;exitDx=0;exitDy=0;" parent="Irn_uy4zuBTAPK6WRNLf-98" source="57GskC2OUnDVnmpbbQjz-25" edge="1">
          <mxGeometry width="160" relative="1" as="geometry">
            <mxPoint x="46" y="232" as="sourcePoint" />
            <mxPoint x="46" as="targetPoint" />
          </mxGeometry>
        </mxCell>
        <mxCell id="Irn_uy4zuBTAPK6WRNLf-96" value="1" style="text;html=1;strokeColor=none;fillColor=none;align=center;verticalAlign=middle;whiteSpace=wrap;rounded=0;" vertex="1" parent="Irn_uy4zuBTAPK6WRNLf-98">
          <mxGeometry y="22" width="50" height="10" as="geometry" />
        </mxCell>
        <mxCell id="Irn_uy4zuBTAPK6WRNLf-97" value="1 ... *" style="text;html=1;strokeColor=none;fillColor=none;align=center;verticalAlign=middle;whiteSpace=wrap;rounded=0;" vertex="1" parent="Irn_uy4zuBTAPK6WRNLf-98">
          <mxGeometry x="5" y="231" width="40" height="10" as="geometry" />
        </mxCell>
        <mxCell id="Irn_uy4zuBTAPK6WRNLf-99" value="1" style="text;html=1;strokeColor=none;fillColor=none;align=center;verticalAlign=middle;whiteSpace=wrap;rounded=0;" vertex="1" parent="Irn_uy4zuBTAPK6WRNLf-75">
          <mxGeometry x="359" y="1226" width="30" as="geometry" />
        </mxCell>
        <mxCell id="Irn_uy4zuBTAPK6WRNLf-100" value="1 ... *" style="text;html=1;strokeColor=none;fillColor=none;align=center;verticalAlign=middle;whiteSpace=wrap;rounded=0;" vertex="1" parent="Irn_uy4zuBTAPK6WRNLf-75">
          <mxGeometry x="403" y="1272" width="40" height="10" as="geometry" />
        </mxCell>
        <mxCell id="Irn_uy4zuBTAPK6WRNLf-103" value="" style="group" vertex="1" connectable="0" parent="Irn_uy4zuBTAPK6WRNLf-75">
          <mxGeometry x="359" y="1226" width="84" height="59" as="geometry" />
        </mxCell>
        <mxCell id="T4Kb6JY-onlQXOTISOH4-29" value="" style="endArrow=diamondThin;endFill=1;endSize=24;html=1;exitX=0;exitY=0.5;exitDx=0;exitDy=0;entryX=1;entryY=0.25;entryDx=0;entryDy=0;" parent="Irn_uy4zuBTAPK6WRNLf-103" source="57GskC2OUnDVnmpbbQjz-28" target="T4Kb6JY-onlQXOTISOH4-9" edge="1">
          <mxGeometry width="160" relative="1" as="geometry">
            <mxPoint x="145" y="78" as="sourcePoint" />
            <mxPoint x="-6" y="7" as="targetPoint" />
            <Array as="points">
              <mxPoint x="24" y="59" />
              <mxPoint x="24" y="7" />
            </Array>
          </mxGeometry>
        </mxCell>
        <mxCell id="Irn_uy4zuBTAPK6WRNLf-101" value="1 ... *" style="text;html=1;strokeColor=none;fillColor=none;align=center;verticalAlign=middle;whiteSpace=wrap;rounded=0;" vertex="1" parent="Irn_uy4zuBTAPK6WRNLf-103">
          <mxGeometry x="44" y="46" width="40" height="10" as="geometry" />
        </mxCell>
        <mxCell id="Irn_uy4zuBTAPK6WRNLf-102" value="1" style="text;html=1;strokeColor=none;fillColor=none;align=center;verticalAlign=middle;whiteSpace=wrap;rounded=0;" vertex="1" parent="Irn_uy4zuBTAPK6WRNLf-103">
          <mxGeometry width="30" as="geometry" />
        </mxCell>
        <mxCell id="Irn_uy4zuBTAPK6WRNLf-104" value="1" style="text;html=1;strokeColor=none;fillColor=none;align=center;verticalAlign=middle;whiteSpace=wrap;rounded=0;" vertex="1" parent="Irn_uy4zuBTAPK6WRNLf-75">
          <mxGeometry x="370" y="1120" width="30" height="10" as="geometry" />
        </mxCell>
        <mxCell id="Irn_uy4zuBTAPK6WRNLf-105" value="1 ... *" style="text;html=1;strokeColor=none;fillColor=none;align=center;verticalAlign=middle;whiteSpace=wrap;rounded=0;" vertex="1" parent="Irn_uy4zuBTAPK6WRNLf-75">
          <mxGeometry x="403" y="1248" width="40" height="10" as="geometry" />
        </mxCell>
        <mxCell id="Irn_uy4zuBTAPK6WRNLf-106" value="1 ... *" style="text;html=1;strokeColor=none;fillColor=none;align=center;verticalAlign=middle;whiteSpace=wrap;rounded=0;" vertex="1" parent="Irn_uy4zuBTAPK6WRNLf-75">
          <mxGeometry x="403" y="1248" width="40" height="10" as="geometry" />
        </mxCell>
        <mxCell id="Irn_uy4zuBTAPK6WRNLf-107" value="1" style="text;html=1;strokeColor=none;fillColor=none;align=center;verticalAlign=middle;whiteSpace=wrap;rounded=0;" vertex="1" parent="Irn_uy4zuBTAPK6WRNLf-75">
          <mxGeometry x="370" y="1120" width="30" height="10" as="geometry" />
        </mxCell>
        <mxCell id="Irn_uy4zuBTAPK6WRNLf-110" value="" style="group" vertex="1" connectable="0" parent="Irn_uy4zuBTAPK6WRNLf-75">
          <mxGeometry x="370" y="1120" width="73" height="139" as="geometry" />
        </mxCell>
        <mxCell id="-8dMRDf63QIHJzTgXih5-9" value="" style="endArrow=diamondThin;endFill=1;endSize=24;html=1;exitX=0;exitY=0.5;exitDx=0;exitDy=0;entryX=1;entryY=0.25;entryDx=0;entryDy=0;" parent="Irn_uy4zuBTAPK6WRNLf-110" source="57GskC2OUnDVnmpbbQjz-27" target="57GskC2OUnDVnmpbbQjz-21" edge="1">
          <mxGeometry width="160" relative="1" as="geometry">
            <mxPoint x="213" y="165" as="sourcePoint" />
            <mxPoint x="-27" y="23" as="targetPoint" />
            <Array as="points">
              <mxPoint x="33" y="139" />
              <mxPoint x="33" y="13" />
            </Array>
          </mxGeometry>
        </mxCell>
        <mxCell id="Irn_uy4zuBTAPK6WRNLf-108" value="1 ... *" style="text;html=1;strokeColor=none;fillColor=none;align=center;verticalAlign=middle;whiteSpace=wrap;rounded=0;" vertex="1" parent="Irn_uy4zuBTAPK6WRNLf-110">
          <mxGeometry x="33" y="128" width="40" height="10" as="geometry" />
        </mxCell>
        <mxCell id="Irn_uy4zuBTAPK6WRNLf-109" value="1" style="text;html=1;strokeColor=none;fillColor=none;align=center;verticalAlign=middle;whiteSpace=wrap;rounded=0;" vertex="1" parent="Irn_uy4zuBTAPK6WRNLf-110">
          <mxGeometry width="30" height="10" as="geometry" />
        </mxCell>
        <mxCell id="Irn_uy4zuBTAPK6WRNLf-111" value="0 ... 1" style="text;html=1;strokeColor=none;fillColor=none;align=center;verticalAlign=middle;whiteSpace=wrap;rounded=0;" vertex="1" parent="Irn_uy4zuBTAPK6WRNLf-75">
          <mxGeometry x="860" y="1280" width="40" height="20" as="geometry" />
        </mxCell>
        <mxCell id="Irn_uy4zuBTAPK6WRNLf-114" value="" style="group" vertex="1" connectable="0" parent="Irn_uy4zuBTAPK6WRNLf-75">
          <mxGeometry x="688" y="1158" width="212" height="142" as="geometry" />
        </mxCell>
        <mxCell id="Irn_uy4zuBTAPK6WRNLf-112" value="1" style="text;html=1;strokeColor=none;fillColor=none;align=center;verticalAlign=middle;whiteSpace=wrap;rounded=0;" vertex="1" parent="Irn_uy4zuBTAPK6WRNLf-114">
          <mxGeometry y="14" width="40" height="20" as="geometry" />
        </mxCell>
        <mxCell id="Irn_uy4zuBTAPK6WRNLf-113" value="0 ... 1" style="text;html=1;strokeColor=none;fillColor=none;align=center;verticalAlign=middle;whiteSpace=wrap;rounded=0;" vertex="1" parent="Irn_uy4zuBTAPK6WRNLf-114">
          <mxGeometry x="172" y="122" width="40" height="20" as="geometry" />
        </mxCell>
        <mxCell id="Irn_uy4zuBTAPK6WRNLf-116" value="1" style="text;html=1;strokeColor=none;fillColor=none;align=center;verticalAlign=middle;whiteSpace=wrap;rounded=0;" vertex="1" parent="Irn_uy4zuBTAPK6WRNLf-75">
          <mxGeometry x="783" y="850" width="40" height="20" as="geometry" />
        </mxCell>
        <mxCell id="Irn_uy4zuBTAPK6WRNLf-121" value="" style="group" vertex="1" connectable="0" parent="Irn_uy4zuBTAPK6WRNLf-75">
          <mxGeometry x="720" y="939" width="40" height="111" as="geometry" />
        </mxCell>
        <mxCell id="Irn_uy4zuBTAPK6WRNLf-117" value="1" style="text;html=1;strokeColor=none;fillColor=none;align=center;verticalAlign=middle;whiteSpace=wrap;rounded=0;" vertex="1" parent="Irn_uy4zuBTAPK6WRNLf-121">
          <mxGeometry y="130" width="40" height="20" as="geometry" />
        </mxCell>
        <mxCell id="Irn_uy4zuBTAPK6WRNLf-118" value="1" style="text;html=1;strokeColor=none;fillColor=none;align=center;verticalAlign=middle;whiteSpace=wrap;rounded=0;" vertex="1" parent="Irn_uy4zuBTAPK6WRNLf-121">
          <mxGeometry y="3" width="40" height="20" as="geometry" />
        </mxCell>
        <mxCell id="Irn_uy4zuBTAPK6WRNLf-119" value="" style="endArrow=diamondThin;endFill=1;endSize=24;html=1;fontColor=#FF3333;entryX=0;entryY=0.75;entryDx=0;entryDy=0;exitX=0.75;exitY=0;exitDx=0;exitDy=0;" edge="1" parent="Irn_uy4zuBTAPK6WRNLf-121">
          <mxGeometry width="160" relative="1" as="geometry">
            <mxPoint x="28" y="111" as="sourcePoint" />
            <mxPoint x="63" as="targetPoint" />
            <Array as="points">
              <mxPoint x="28" />
            </Array>
          </mxGeometry>
        </mxCell>
        <mxCell id="Irn_uy4zuBTAPK6WRNLf-126" value="1 ... *" style="text;html=1;strokeColor=none;fillColor=none;align=center;verticalAlign=middle;whiteSpace=wrap;rounded=0;" vertex="1" parent="Irn_uy4zuBTAPK6WRNLf-75">
          <mxGeometry x="573" y="919" width="40" height="20" as="geometry" />
        </mxCell>
        <mxCell id="Irn_uy4zuBTAPK6WRNLf-128" value="" style="group" vertex="1" connectable="0" parent="Irn_uy4zuBTAPK6WRNLf-75">
          <mxGeometry x="583" y="965" width="80" height="85" as="geometry" />
        </mxCell>
        <mxCell id="Irn_uy4zuBTAPK6WRNLf-124" value="1" style="text;html=1;strokeColor=none;fillColor=none;align=center;verticalAlign=middle;whiteSpace=wrap;rounded=0;" vertex="1" parent="Irn_uy4zuBTAPK6WRNLf-128">
          <mxGeometry x="40" y="102" width="40" height="20" as="geometry" />
        </mxCell>
        <mxCell id="Irn_uy4zuBTAPK6WRNLf-123" value="1" style="text;html=1;strokeColor=none;fillColor=none;align=center;verticalAlign=middle;whiteSpace=wrap;rounded=0;" vertex="1" parent="Irn_uy4zuBTAPK6WRNLf-128">
          <mxGeometry y="1" width="40" height="20" as="geometry" />
        </mxCell>
        <mxCell id="Irn_uy4zuBTAPK6WRNLf-135" value="" style="group" vertex="1" connectable="0" parent="Irn_uy4zuBTAPK6WRNLf-75">
          <mxGeometry x="268" y="850" width="555" height="270" as="geometry" />
        </mxCell>
        <mxCell id="Irn_uy4zuBTAPK6WRNLf-115" value="1" style="text;html=1;strokeColor=none;fillColor=none;align=center;verticalAlign=middle;whiteSpace=wrap;rounded=0;" vertex="1" parent="Irn_uy4zuBTAPK6WRNLf-135">
          <mxGeometry x="2" y="250" width="40" height="20" as="geometry" />
        </mxCell>
        <mxCell id="Irn_uy4zuBTAPK6WRNLf-133" value="1" style="text;html=1;strokeColor=none;fillColor=none;align=center;verticalAlign=middle;whiteSpace=wrap;rounded=0;" vertex="1" parent="Irn_uy4zuBTAPK6WRNLf-135">
          <mxGeometry x="515" width="40" height="20" as="geometry" />
        </mxCell>
        <mxCell id="Irn_uy4zuBTAPK6WRNLf-134" value="" style="endArrow=diamondThin;endFill=1;endSize=24;html=1;fontColor=#FF3333;entryX=0.25;entryY=0;entryDx=0;entryDy=0;exitX=0.5;exitY=0;exitDx=0;exitDy=0;" edge="1" parent="Irn_uy4zuBTAPK6WRNLf-135">
          <mxGeometry width="160" relative="1" as="geometry">
            <mxPoint y="270" as="sourcePoint" />
            <mxPoint x="550" y="50" as="targetPoint" />
            <Array as="points">
              <mxPoint />
              <mxPoint x="550" />
            </Array>
          </mxGeometry>
        </mxCell>
        <mxCell id="-8dMRDf63QIHJzTgXih5-31" value="" style="endArrow=diamondThin;endFill=0;endSize=24;html=1;fontColor=#FF3333;exitX=0.75;exitY=0;exitDx=0;exitDy=0;entryX=0;entryY=0.5;entryDx=0;entryDy=0;" parent="Irn_uy4zuBTAPK6WRNLf-75" source="57GskC2OUnDVnmpbbQjz-25" target="T4Kb6JY-onlQXOTISOH4-28" edge="1">
          <mxGeometry width="160" relative="1" as="geometry">
            <mxPoint x="533" y="1140" as="sourcePoint" />
            <mxPoint x="693" y="1140" as="targetPoint" />
            <Array as="points">
              <mxPoint x="548" y="1156" />
            </Array>
          </mxGeometry>
        </mxCell>
        <mxCell id="-8dMRDf63QIHJzTgXih5-34" value="" style="endArrow=diamondThin;endFill=1;endSize=24;html=1;fontColor=#FF3333;exitX=0.5;exitY=0;exitDx=0;exitDy=0;entryX=0.45;entryY=1.024;entryDx=0;entryDy=0;entryPerimeter=0;" parent="Irn_uy4zuBTAPK6WRNLf-75" source="T4Kb6JY-onlQXOTISOH4-13" target="T4Kb6JY-onlQXOTISOH4-28" edge="1">
          <mxGeometry width="160" relative="1" as="geometry">
            <mxPoint x="763" y="1280" as="sourcePoint" />
            <mxPoint x="923" y="1280" as="targetPoint" />
            <Array as="points">
              <mxPoint x="863" y="1280" />
              <mxPoint x="694" y="1280" />
            </Array>
          </mxGeometry>
        </mxCell>
        <mxCell id="-8dMRDf63QIHJzTgXih5-29" value="" style="endArrow=diamondThin;endFill=1;endSize=24;html=1;fontColor=#FF3333;entryX=1;entryY=0.5;entryDx=0;entryDy=0;exitX=0.25;exitY=0;exitDx=0;exitDy=0;" parent="Irn_uy4zuBTAPK6WRNLf-75" source="T4Kb6JY-onlQXOTISOH4-25" target="T4Kb6JY-onlQXOTISOH4-6" edge="1">
          <mxGeometry width="160" relative="1" as="geometry">
            <mxPoint x="703" y="1050" as="sourcePoint" />
            <mxPoint x="572" y="952" as="targetPoint" />
            <Array as="points">
              <mxPoint x="658" y="965" />
              <mxPoint x="603" y="965" />
            </Array>
          </mxGeometry>
        </mxCell>
        <mxCell id="Irn_uy4zuBTAPK6WRNLf-348" value="Communicates" style="endArrow=open;endSize=12;html=1;exitX=1;exitY=0.5;exitDx=0;exitDy=0;entryX=0;entryY=0.5;entryDx=0;entryDy=0;" edge="1" parent="Irn_uy4zuBTAPK6WRNLf-75" source="57GskC2OUnDVnmpbbQjz-4" target="T4Kb6JY-onlQXOTISOH4-17">
          <mxGeometry x="0.0213" width="160" relative="1" as="geometry">
            <mxPoint x="1060" y="1030" as="sourcePoint" />
            <mxPoint x="1220" y="1030" as="targetPoint" />
            <Array as="points">
              <mxPoint x="970" y="939" />
              <mxPoint x="970" y="1016" />
              <mxPoint x="1160" y="1016" />
              <mxPoint x="1160" y="1046" />
            </Array>
            <mxPoint as="offset" />
          </mxGeometry>
        </mxCell>
        <mxCell id="Irn_uy4zuBTAPK6WRNLf-363" value="" style="endArrow=diamondThin;endFill=0;endSize=24;html=1;exitX=0.5;exitY=0;exitDx=0;exitDy=0;entryX=1;entryY=0.5;entryDx=0;entryDy=0;" edge="1" parent="Irn_uy4zuBTAPK6WRNLf-75" source="Irn_uy4zuBTAPK6WRNLf-357" target="-8dMRDf63QIHJzTgXih5-13">
          <mxGeometry width="160" relative="1" as="geometry">
            <mxPoint x="1350" y="1000" as="sourcePoint" />
            <mxPoint x="1510" y="1000" as="targetPoint" />
            <Array as="points">
              <mxPoint x="1422" y="921" />
            </Array>
          </mxGeometry>
        </mxCell>
        <mxCell id="Irn_uy4zuBTAPK6WRNLf-541" value="" style="group" vertex="1" connectable="0" parent="Irn_uy4zuBTAPK6WRNLf-75">
          <mxGeometry width="1570" height="1540" as="geometry" />
        </mxCell>
        <mxCell id="Irn_uy4zuBTAPK6WRNLf-712" value="" style="endArrow=diamondThin;endFill=0;endSize=24;html=1;exitX=0.5;exitY=0;exitDx=0;exitDy=0;entryX=1;entryY=0.5;entryDx=0;entryDy=0;" edge="1" parent="Irn_uy4zuBTAPK6WRNLf-541" source="Irn_uy4zuBTAPK6WRNLf-595" target="Irn_uy4zuBTAPK6WRNLf-621">
          <mxGeometry width="160" relative="1" as="geometry">
            <mxPoint x="1350" y="1000" as="sourcePoint" />
            <mxPoint x="1510" y="1000" as="targetPoint" />
            <Array as="points">
              <mxPoint x="1422" y="921" />
            </Array>
          </mxGeometry>
        </mxCell>
        <mxCell id="Irn_uy4zuBTAPK6WRNLf-542" value="" style="group" vertex="1" connectable="0" parent="Irn_uy4zuBTAPK6WRNLf-541">
          <mxGeometry width="1570" height="1540" as="geometry" />
        </mxCell>
        <mxCell id="Irn_uy4zuBTAPK6WRNLf-543" value="Suppliers Module" style="shape=module;align=left;spacingLeft=20;align=center;verticalAlign=top;fillColor=none;fontStyle=5" vertex="1" parent="Irn_uy4zuBTAPK6WRNLf-542">
          <mxGeometry width="1570" height="1540" as="geometry" />
        </mxCell>
        <mxCell id="Irn_uy4zuBTAPK6WRNLf-544" value="" style="group" vertex="1" connectable="0" parent="Irn_uy4zuBTAPK6WRNLf-542">
          <mxGeometry x="573" y="893" width="187" height="46" as="geometry" />
        </mxCell>
        <mxCell id="Irn_uy4zuBTAPK6WRNLf-545" value="1 ... *" style="text;html=1;strokeColor=none;fillColor=none;align=center;verticalAlign=middle;whiteSpace=wrap;rounded=0;" vertex="1" parent="Irn_uy4zuBTAPK6WRNLf-544">
          <mxGeometry x="147" width="40" height="20" as="geometry" />
        </mxCell>
        <mxCell id="Irn_uy4zuBTAPK6WRNLf-546" value="1 ... *" style="text;html=1;strokeColor=none;fillColor=none;align=center;verticalAlign=middle;whiteSpace=wrap;rounded=0;" vertex="1" parent="Irn_uy4zuBTAPK6WRNLf-544">
          <mxGeometry y="26" width="40" height="20" as="geometry" />
        </mxCell>
        <mxCell id="Irn_uy4zuBTAPK6WRNLf-547" value="" style="endArrow=diamondThin;endFill=0;endSize=24;html=1;entryX=0;entryY=0.25;entryDx=0;entryDy=0;exitX=1;exitY=0.25;exitDx=0;exitDy=0;" edge="1" parent="Irn_uy4zuBTAPK6WRNLf-544">
          <mxGeometry width="160" relative="1" as="geometry">
            <mxPoint y="46" as="sourcePoint" />
            <mxPoint x="210" y="20" as="targetPoint" />
            <Array as="points">
              <mxPoint x="60" y="46" />
              <mxPoint x="60" y="20" />
            </Array>
          </mxGeometry>
        </mxCell>
        <mxCell id="Irn_uy4zuBTAPK6WRNLf-548" value="" style="group" vertex="1" connectable="0" parent="Irn_uy4zuBTAPK6WRNLf-541">
          <mxGeometry x="53" y="30" width="1480" height="280" as="geometry" />
        </mxCell>
        <mxCell id="Irn_uy4zuBTAPK6WRNLf-549" value="" style="shape=folder;fontStyle=1;spacingTop=10;tabWidth=110;tabHeight=20;tabPosition=left;html=1;fillColor=none;" vertex="1" parent="Irn_uy4zuBTAPK6WRNLf-548">
          <mxGeometry width="1480" height="280" as="geometry" />
        </mxCell>
        <mxCell id="Irn_uy4zuBTAPK6WRNLf-550" value="Presentation Layer" style="text;align=center;fontStyle=1;verticalAlign=middle;spacingLeft=3;spacingRight=3;strokeColor=none;rotatable=0;points=[[0,0.5],[1,0.5]];portConstraint=eastwest;fillColor=none;" vertex="1" parent="Irn_uy4zuBTAPK6WRNLf-548">
          <mxGeometry width="110" height="20" as="geometry" />
        </mxCell>
        <mxCell id="Irn_uy4zuBTAPK6WRNLf-551" value="1" style="text;html=1;strokeColor=none;fillColor=none;align=center;verticalAlign=middle;whiteSpace=wrap;rounded=0;" vertex="1" parent="Irn_uy4zuBTAPK6WRNLf-548">
          <mxGeometry x="597" y="135" width="30" height="10" as="geometry" />
        </mxCell>
        <mxCell id="Irn_uy4zuBTAPK6WRNLf-552" value="1" style="text;html=1;strokeColor=none;fillColor=none;align=center;verticalAlign=middle;whiteSpace=wrap;rounded=0;" vertex="1" parent="Irn_uy4zuBTAPK6WRNLf-548">
          <mxGeometry x="488" y="151" width="30" height="10" as="geometry" />
        </mxCell>
        <mxCell id="Irn_uy4zuBTAPK6WRNLf-553" value="1" style="text;html=1;strokeColor=none;fillColor=none;align=center;verticalAlign=middle;whiteSpace=wrap;rounded=0;" vertex="1" parent="Irn_uy4zuBTAPK6WRNLf-548">
          <mxGeometry x="649" y="170" width="30" height="10" as="geometry" />
        </mxCell>
        <mxCell id="Irn_uy4zuBTAPK6WRNLf-554" value="1" style="text;html=1;strokeColor=none;fillColor=none;align=center;verticalAlign=middle;whiteSpace=wrap;rounded=0;" vertex="1" parent="Irn_uy4zuBTAPK6WRNLf-548">
          <mxGeometry x="648" y="135" width="30" height="10" as="geometry" />
        </mxCell>
        <mxCell id="Irn_uy4zuBTAPK6WRNLf-555" value="1" style="text;html=1;strokeColor=none;fillColor=none;align=center;verticalAlign=middle;whiteSpace=wrap;rounded=0;" vertex="1" parent="Irn_uy4zuBTAPK6WRNLf-548">
          <mxGeometry x="687" y="135" width="30" height="10" as="geometry" />
        </mxCell>
        <mxCell id="Irn_uy4zuBTAPK6WRNLf-556" value="1" style="text;html=1;strokeColor=none;fillColor=none;align=center;verticalAlign=middle;whiteSpace=wrap;rounded=0;" vertex="1" parent="Irn_uy4zuBTAPK6WRNLf-548">
          <mxGeometry x="787" y="151" width="30" height="10" as="geometry" />
        </mxCell>
        <mxCell id="Irn_uy4zuBTAPK6WRNLf-557" value="1" style="text;html=1;strokeColor=none;fillColor=none;align=center;verticalAlign=middle;whiteSpace=wrap;rounded=0;" vertex="1" parent="Irn_uy4zuBTAPK6WRNLf-548">
          <mxGeometry x="787" y="240" width="30" height="10" as="geometry" />
        </mxCell>
        <mxCell id="Irn_uy4zuBTAPK6WRNLf-558" value="1" style="text;html=1;strokeColor=none;fillColor=none;align=center;verticalAlign=middle;whiteSpace=wrap;rounded=0;" vertex="1" parent="Irn_uy4zuBTAPK6WRNLf-548">
          <mxGeometry x="657" y="240" width="30" height="10" as="geometry" />
        </mxCell>
        <mxCell id="Irn_uy4zuBTAPK6WRNLf-559" value="1" style="text;html=1;strokeColor=none;fillColor=none;align=center;verticalAlign=middle;whiteSpace=wrap;rounded=0;" vertex="1" parent="Irn_uy4zuBTAPK6WRNLf-548">
          <mxGeometry x="497" y="240" width="30" height="10" as="geometry" />
        </mxCell>
        <mxCell id="Irn_uy4zuBTAPK6WRNLf-560" value="" style="group" vertex="1" connectable="0" parent="Irn_uy4zuBTAPK6WRNLf-541">
          <mxGeometry x="133" y="380" width="1340" height="430" as="geometry" />
        </mxCell>
        <mxCell id="Irn_uy4zuBTAPK6WRNLf-561" value="Application Facade" style="text;html=1;align=center;verticalAlign=middle;resizable=0;points=[];autosize=1;" vertex="1" parent="Irn_uy4zuBTAPK6WRNLf-560">
          <mxGeometry width="120" height="20" as="geometry" />
        </mxCell>
        <mxCell id="Irn_uy4zuBTAPK6WRNLf-562" value="" style="shape=folder;fontStyle=1;spacingTop=10;tabWidth=130;tabHeight=20;tabPosition=left;html=1;fillColor=none;" vertex="1" parent="Irn_uy4zuBTAPK6WRNLf-560">
          <mxGeometry width="1340" height="430" as="geometry" />
        </mxCell>
        <mxCell id="Irn_uy4zuBTAPK6WRNLf-563" value="" style="group" vertex="1" connectable="0" parent="Irn_uy4zuBTAPK6WRNLf-541">
          <mxGeometry x="53" y="330" width="1480" height="1180" as="geometry" />
        </mxCell>
        <mxCell id="Irn_uy4zuBTAPK6WRNLf-565" value="Business Layer" style="text;align=center;fontStyle=1;verticalAlign=middle;spacingLeft=3;spacingRight=3;strokeColor=none;rotatable=0;points=[[0,0.5],[1,0.5]];portConstraint=eastwest;fillColor=none;" vertex="1" parent="Irn_uy4zuBTAPK6WRNLf-563">
          <mxGeometry x="10" width="110" height="26" as="geometry" />
        </mxCell>
        <mxCell id="Irn_uy4zuBTAPK6WRNLf-566" value="" style="group" vertex="1" connectable="0" parent="Irn_uy4zuBTAPK6WRNLf-563">
          <mxGeometry x="787" y="520" width="160" height="20" as="geometry" />
        </mxCell>
        <mxCell id="Irn_uy4zuBTAPK6WRNLf-567" value="1" style="text;html=1;strokeColor=none;fillColor=none;align=center;verticalAlign=middle;whiteSpace=wrap;rounded=0;" vertex="1" parent="Irn_uy4zuBTAPK6WRNLf-566">
          <mxGeometry x="120" width="40" height="20" as="geometry" />
        </mxCell>
        <mxCell id="Irn_uy4zuBTAPK6WRNLf-568" value="1" style="text;html=1;strokeColor=none;fillColor=none;align=center;verticalAlign=middle;whiteSpace=wrap;rounded=0;" vertex="1" parent="Irn_uy4zuBTAPK6WRNLf-566">
          <mxGeometry width="40" height="20" as="geometry" />
        </mxCell>
        <mxCell id="Irn_uy4zuBTAPK6WRNLf-569" value="" style="endArrow=diamondThin;endFill=1;endSize=24;html=1;exitX=0;exitY=0.5;exitDx=0;exitDy=0;entryX=0.5;entryY=0;entryDx=0;entryDy=0;" edge="1" parent="Irn_uy4zuBTAPK6WRNLf-566">
          <mxGeometry width="160" relative="1" as="geometry">
            <mxPoint x="153" y="20" as="sourcePoint" />
            <mxPoint x="13" y="51" as="targetPoint" />
            <Array as="points">
              <mxPoint x="13" y="20" />
            </Array>
          </mxGeometry>
        </mxCell>
        <mxCell id="Irn_uy4zuBTAPK6WRNLf-570" value="1" style="text;html=1;strokeColor=none;fillColor=none;align=center;verticalAlign=middle;whiteSpace=wrap;rounded=0;" vertex="1" parent="Irn_uy4zuBTAPK6WRNLf-563">
          <mxGeometry x="687" y="164" width="30" height="10" as="geometry" />
        </mxCell>
        <mxCell id="Irn_uy4zuBTAPK6WRNLf-571" value="1" style="text;html=1;strokeColor=none;fillColor=none;align=center;verticalAlign=middle;whiteSpace=wrap;rounded=0;" vertex="1" parent="Irn_uy4zuBTAPK6WRNLf-563">
          <mxGeometry x="587" y="164" width="30" height="10" as="geometry" />
        </mxCell>
        <mxCell id="Irn_uy4zuBTAPK6WRNLf-572" value="1" style="text;html=1;strokeColor=none;fillColor=none;align=center;verticalAlign=middle;whiteSpace=wrap;rounded=0;" vertex="1" parent="Irn_uy4zuBTAPK6WRNLf-563">
          <mxGeometry x="628" y="164" width="30" height="10" as="geometry" />
        </mxCell>
        <mxCell id="Irn_uy4zuBTAPK6WRNLf-573" value="1" style="text;html=1;strokeColor=none;fillColor=none;align=center;verticalAlign=middle;whiteSpace=wrap;rounded=0;" vertex="1" parent="Irn_uy4zuBTAPK6WRNLf-563">
          <mxGeometry x="837" y="236" width="30" height="10" as="geometry" />
        </mxCell>
        <mxCell id="Irn_uy4zuBTAPK6WRNLf-574" value="1" style="text;html=1;strokeColor=none;fillColor=none;align=center;verticalAlign=middle;whiteSpace=wrap;rounded=0;" vertex="1" parent="Irn_uy4zuBTAPK6WRNLf-563">
          <mxGeometry x="647" y="236" width="30" height="10" as="geometry" />
        </mxCell>
        <mxCell id="Irn_uy4zuBTAPK6WRNLf-575" value="1" style="text;html=1;strokeColor=none;fillColor=none;align=center;verticalAlign=middle;whiteSpace=wrap;rounded=0;" vertex="1" parent="Irn_uy4zuBTAPK6WRNLf-563">
          <mxGeometry x="457" y="236" width="30" height="10" as="geometry" />
        </mxCell>
        <mxCell id="Irn_uy4zuBTAPK6WRNLf-576" value="1" style="text;html=1;strokeColor=none;fillColor=none;align=center;verticalAlign=middle;whiteSpace=wrap;rounded=0;" vertex="1" parent="Irn_uy4zuBTAPK6WRNLf-563">
          <mxGeometry x="687" y="90" width="30" height="10" as="geometry" />
        </mxCell>
        <mxCell id="Irn_uy4zuBTAPK6WRNLf-577" value="1" style="text;html=1;strokeColor=none;fillColor=none;align=center;verticalAlign=middle;whiteSpace=wrap;rounded=0;" vertex="1" parent="Irn_uy4zuBTAPK6WRNLf-563">
          <mxGeometry x="647" y="90" width="30" height="10" as="geometry" />
        </mxCell>
        <mxCell id="Irn_uy4zuBTAPK6WRNLf-578" value="1" style="text;html=1;strokeColor=none;fillColor=none;align=center;verticalAlign=middle;whiteSpace=wrap;rounded=0;" vertex="1" parent="Irn_uy4zuBTAPK6WRNLf-563">
          <mxGeometry x="587" y="90" width="30" height="10" as="geometry" />
        </mxCell>
        <mxCell id="Irn_uy4zuBTAPK6WRNLf-579" value="1" style="text;html=1;strokeColor=none;fillColor=none;align=center;verticalAlign=middle;whiteSpace=wrap;rounded=0;" vertex="1" parent="Irn_uy4zuBTAPK6WRNLf-563">
          <mxGeometry x="457" y="324" width="30" height="10" as="geometry" />
        </mxCell>
        <mxCell id="Irn_uy4zuBTAPK6WRNLf-580" value="1" style="text;html=1;strokeColor=none;fillColor=none;align=center;verticalAlign=middle;whiteSpace=wrap;rounded=0;" vertex="1" parent="Irn_uy4zuBTAPK6WRNLf-563">
          <mxGeometry x="647" y="324" width="30" height="10" as="geometry" />
        </mxCell>
        <mxCell id="Irn_uy4zuBTAPK6WRNLf-581" value="1" style="text;html=1;strokeColor=none;fillColor=none;align=center;verticalAlign=middle;whiteSpace=wrap;rounded=0;" vertex="1" parent="Irn_uy4zuBTAPK6WRNLf-563">
          <mxGeometry x="837" y="324" width="30" height="10" as="geometry" />
        </mxCell>
        <mxCell id="Irn_uy4zuBTAPK6WRNLf-582" value="0 ... *" style="text;html=1;strokeColor=none;fillColor=none;align=center;verticalAlign=middle;whiteSpace=wrap;rounded=0;" vertex="1" parent="Irn_uy4zuBTAPK6WRNLf-563">
          <mxGeometry x="330" y="1050" width="44" height="20" as="geometry" />
        </mxCell>
        <mxCell id="Irn_uy4zuBTAPK6WRNLf-583" value="0 ... *" style="text;html=1;strokeColor=none;fillColor=none;align=center;verticalAlign=middle;whiteSpace=wrap;rounded=0;" vertex="1" parent="Irn_uy4zuBTAPK6WRNLf-563">
          <mxGeometry x="613" y="735" width="44" height="20" as="geometry" />
        </mxCell>
        <mxCell id="Irn_uy4zuBTAPK6WRNLf-584" value="0 ... *" style="text;html=1;strokeColor=none;fillColor=none;align=center;verticalAlign=middle;whiteSpace=wrap;rounded=0;" vertex="1" parent="Irn_uy4zuBTAPK6WRNLf-563">
          <mxGeometry x="837" y="550" width="44" height="20" as="geometry" />
        </mxCell>
        <mxCell id="Irn_uy4zuBTAPK6WRNLf-585" value="SupplierProtocol" style="swimlane;fontStyle=0;childLayout=stackLayout;horizontal=1;startSize=26;fillColor=none;horizontalStack=0;resizeParent=1;resizeParentMax=0;resizeLast=0;collapsible=1;marginBottom=0;" vertex="1" parent="Irn_uy4zuBTAPK6WRNLf-563">
          <mxGeometry x="1167" y="690" width="170" height="52" as="geometry" />
        </mxCell>
        <mxCell id="Irn_uy4zuBTAPK6WRNLf-586" value="- PermanentDays: boolean" style="text;strokeColor=none;fillColor=none;align=left;verticalAlign=top;spacingLeft=4;spacingRight=4;overflow=hidden;rotatable=0;points=[[0,0.5],[1,0.5]];portConstraint=eastwest;" vertex="1" parent="Irn_uy4zuBTAPK6WRNLf-585">
          <mxGeometry y="26" width="170" height="26" as="geometry" />
        </mxCell>
        <mxCell id="Irn_uy4zuBTAPK6WRNLf-587" value="ByOrderSupplier" style="swimlane;fontStyle=0;childLayout=stackLayout;horizontal=1;startSize=26;fillColor=none;horizontalStack=0;resizeParent=1;resizeParentMax=0;resizeLast=0;collapsible=1;marginBottom=0;" vertex="1" parent="Irn_uy4zuBTAPK6WRNLf-563">
          <mxGeometry x="727" y="690" width="140" height="52" as="geometry" />
        </mxCell>
        <mxCell id="Irn_uy4zuBTAPK6WRNLf-588" value="ByselfSupplier" style="swimlane;fontStyle=0;childLayout=stackLayout;horizontal=1;startSize=26;fillColor=none;horizontalStack=0;resizeParent=1;resizeParentMax=0;resizeLast=0;collapsible=1;marginBottom=0;" vertex="1" parent="Irn_uy4zuBTAPK6WRNLf-563">
          <mxGeometry x="887" y="735" width="140" height="52" as="geometry" />
        </mxCell>
        <mxCell id="Irn_uy4zuBTAPK6WRNLf-589" value="Contract" style="swimlane;fontStyle=0;childLayout=stackLayout;horizontal=1;startSize=26;fillColor=none;horizontalStack=0;resizeParent=1;resizeParentMax=0;resizeLast=0;collapsible=1;marginBottom=0;" vertex="1" parent="Irn_uy4zuBTAPK6WRNLf-563">
          <mxGeometry x="560" y="760" width="180" height="80" as="geometry" />
        </mxCell>
        <mxCell id="Irn_uy4zuBTAPK6WRNLf-590" value="- Conditions: List&lt;string&gt;" style="text;strokeColor=none;fillColor=none;align=left;verticalAlign=top;spacingLeft=4;spacingRight=4;overflow=hidden;rotatable=0;points=[[0,0.5],[1,0.5]];portConstraint=eastwest;" vertex="1" parent="Irn_uy4zuBTAPK6WRNLf-589">
          <mxGeometry y="26" width="180" height="26" as="geometry" />
        </mxCell>
        <mxCell id="Irn_uy4zuBTAPK6WRNLf-591" value="- itemVsPrice: map&lt;item, float&gt;" style="text;strokeColor=none;fillColor=none;align=left;verticalAlign=top;spacingLeft=4;spacingRight=4;overflow=hidden;rotatable=0;points=[[0,0.5],[1,0.5]];portConstraint=eastwest;" vertex="1" parent="Irn_uy4zuBTAPK6WRNLf-589">
          <mxGeometry y="52" width="180" height="28" as="geometry" />
        </mxCell>
        <mxCell id="Irn_uy4zuBTAPK6WRNLf-592" value="" style="endArrow=diamondThin;endFill=1;endSize=24;html=1;exitX=1;exitY=0.5;exitDx=0;exitDy=0;entryX=0.548;entryY=1.067;entryDx=0;entryDy=0;entryPerimeter=0;" edge="1" parent="Irn_uy4zuBTAPK6WRNLf-563" source="Irn_uy4zuBTAPK6WRNLf-590" target="Irn_uy4zuBTAPK6WRNLf-586">
          <mxGeometry width="160" relative="1" as="geometry">
            <mxPoint x="877" y="990" as="sourcePoint" />
            <mxPoint x="1037" y="990" as="targetPoint" />
            <Array as="points">
              <mxPoint x="1260" y="799" />
            </Array>
          </mxGeometry>
        </mxCell>
        <mxCell id="Irn_uy4zuBTAPK6WRNLf-593" value="1" style="text;html=1;strokeColor=none;fillColor=none;align=center;verticalAlign=middle;whiteSpace=wrap;rounded=0;" vertex="1" parent="Irn_uy4zuBTAPK6WRNLf-563">
          <mxGeometry x="1267" y="715" width="40" height="20" as="geometry" />
        </mxCell>
        <mxCell id="Irn_uy4zuBTAPK6WRNLf-594" value="1" style="text;html=1;strokeColor=none;fillColor=none;align=center;verticalAlign=middle;whiteSpace=wrap;rounded=0;" vertex="1" parent="Irn_uy4zuBTAPK6WRNLf-563">
          <mxGeometry x="740" y="800" width="40" height="20" as="geometry" />
        </mxCell>
        <mxCell id="Irn_uy4zuBTAPK6WRNLf-595" value="ContactPerson" style="swimlane;fontStyle=0;childLayout=stackLayout;horizontal=1;startSize=26;fillColor=none;horizontalStack=0;resizeParent=1;resizeParentMax=0;resizeLast=0;collapsible=1;marginBottom=0;strokeColor=#000000;" vertex="1" parent="Irn_uy4zuBTAPK6WRNLf-563">
          <mxGeometry x="1267" y="940" width="203" height="78" as="geometry" />
        </mxCell>
        <mxCell id="Irn_uy4zuBTAPK6WRNLf-596" value="- name: string" style="text;strokeColor=none;fillColor=none;align=left;verticalAlign=top;spacingLeft=4;spacingRight=4;overflow=hidden;rotatable=0;points=[[0,0.5],[1,0.5]];portConstraint=eastwest;" vertex="1" parent="Irn_uy4zuBTAPK6WRNLf-595">
          <mxGeometry y="26" width="203" height="26" as="geometry" />
        </mxCell>
        <mxCell id="Irn_uy4zuBTAPK6WRNLf-597" value="- conactDetails : map&lt;string,string&gt;" style="text;strokeColor=none;fillColor=none;align=left;verticalAlign=top;spacingLeft=4;spacingRight=4;overflow=hidden;rotatable=0;points=[[0,0.5],[1,0.5]];portConstraint=eastwest;" vertex="1" parent="Irn_uy4zuBTAPK6WRNLf-595">
          <mxGeometry y="52" width="203" height="26" as="geometry" />
        </mxCell>
        <mxCell id="Irn_uy4zuBTAPK6WRNLf-713" value="" style="group" vertex="1" connectable="0" parent="Irn_uy4zuBTAPK6WRNLf-563">
          <mxGeometry width="1480" height="1180" as="geometry" />
        </mxCell>
        <mxCell id="Irn_uy4zuBTAPK6WRNLf-564" value="" style="shape=folder;fontStyle=1;spacingTop=10;tabWidth=130;tabHeight=30;tabPosition=left;html=1;strokeColor=#666666;fontColor=#333333;fillColor=none;" vertex="1" parent="Irn_uy4zuBTAPK6WRNLf-713">
          <mxGeometry width="1480" height="1180" as="geometry" />
        </mxCell>
        <mxCell id="Irn_uy4zuBTAPK6WRNLf-598" value="1 ... *" style="text;html=1;strokeColor=none;fillColor=none;align=center;verticalAlign=middle;whiteSpace=wrap;rounded=0;" vertex="1" parent="Irn_uy4zuBTAPK6WRNLf-713">
          <mxGeometry x="1367" y="920" width="40" height="20" as="geometry" />
        </mxCell>
        <mxCell id="Irn_uy4zuBTAPK6WRNLf-599" value="0 ... *" style="text;html=1;strokeColor=none;fillColor=none;align=center;verticalAlign=middle;whiteSpace=wrap;rounded=0;fontColor=#000000;" vertex="1" parent="Irn_uy4zuBTAPK6WRNLf-713">
          <mxGeometry x="1187" y="570" width="40" height="20" as="geometry" />
        </mxCell>
        <mxCell id="Irn_uy4zuBTAPK6WRNLf-600" value="&lt;Abstract&gt;&#xa;Supllier" style="swimlane;fontStyle=0;childLayout=stackLayout;horizontal=1;startSize=26;fillColor=none;horizontalStack=0;resizeParent=1;resizeParentMax=0;resizeLast=0;collapsible=1;marginBottom=0;" vertex="1" parent="Irn_uy4zuBTAPK6WRNLf-541">
          <mxGeometry x="783" y="900" width="140" height="52" as="geometry" />
        </mxCell>
        <mxCell id="Irn_uy4zuBTAPK6WRNLf-601" value="- id: int" style="text;strokeColor=none;fillColor=none;align=left;verticalAlign=top;spacingLeft=4;spacingRight=4;overflow=hidden;rotatable=0;points=[[0,0.5],[1,0.5]];portConstraint=eastwest;" vertex="1" parent="Irn_uy4zuBTAPK6WRNLf-600">
          <mxGeometry y="26" width="140" height="26" as="geometry" />
        </mxCell>
        <mxCell id="Irn_uy4zuBTAPK6WRNLf-602" value="Catalog" style="swimlane;fontStyle=0;childLayout=stackLayout;horizontal=1;startSize=26;fillColor=none;horizontalStack=0;resizeParent=1;resizeParentMax=0;resizeLast=0;collapsible=1;marginBottom=0;" vertex="1" parent="Irn_uy4zuBTAPK6WRNLf-541">
          <mxGeometry x="193" y="1120" width="150" height="52" as="geometry" />
        </mxCell>
        <mxCell id="Irn_uy4zuBTAPK6WRNLf-603" value="- itemVsId: map&lt;int, Item&gt;" style="text;strokeColor=none;fillColor=none;align=left;verticalAlign=top;spacingLeft=4;spacingRight=4;overflow=hidden;rotatable=0;points=[[0,0.5],[1,0.5]];portConstraint=eastwest;" vertex="1" parent="Irn_uy4zuBTAPK6WRNLf-602">
          <mxGeometry y="26" width="150" height="26" as="geometry" />
        </mxCell>
        <mxCell id="Irn_uy4zuBTAPK6WRNLf-604" value="Item" style="swimlane;fontStyle=0;childLayout=stackLayout;horizontal=1;startSize=26;fillColor=none;horizontalStack=0;resizeParent=1;resizeParentMax=0;resizeLast=0;collapsible=1;marginBottom=0;" vertex="1" parent="Irn_uy4zuBTAPK6WRNLf-541">
          <mxGeometry x="443" y="1220" width="140" height="78" as="geometry" />
        </mxCell>
        <mxCell id="Irn_uy4zuBTAPK6WRNLf-605" value="- Catalog: int" style="text;strokeColor=none;fillColor=none;align=left;verticalAlign=top;spacingLeft=4;spacingRight=4;overflow=hidden;rotatable=0;points=[[0,0.5],[1,0.5]];portConstraint=eastwest;" vertex="1" parent="Irn_uy4zuBTAPK6WRNLf-604">
          <mxGeometry y="26" width="140" height="26" as="geometry" />
        </mxCell>
        <mxCell id="Irn_uy4zuBTAPK6WRNLf-606" value="- Area: string" style="text;strokeColor=none;fillColor=none;align=left;verticalAlign=top;spacingLeft=4;spacingRight=4;overflow=hidden;rotatable=0;points=[[0,0.5],[1,0.5]];portConstraint=eastwest;" vertex="1" parent="Irn_uy4zuBTAPK6WRNLf-604">
          <mxGeometry y="52" width="140" height="26" as="geometry" />
        </mxCell>
        <mxCell id="Irn_uy4zuBTAPK6WRNLf-607" value="Order" style="swimlane;fontStyle=0;childLayout=stackLayout;horizontal=1;startSize=26;fillColor=none;horizontalStack=0;resizeParent=1;resizeParentMax=0;resizeLast=0;collapsible=1;marginBottom=0;" vertex="1" parent="Irn_uy4zuBTAPK6WRNLf-541">
          <mxGeometry x="443" y="1380" width="140" height="78" as="geometry" />
        </mxCell>
        <mxCell id="Irn_uy4zuBTAPK6WRNLf-608" value="- Date: Datetime" style="text;strokeColor=none;fillColor=none;align=left;verticalAlign=top;spacingLeft=4;spacingRight=4;overflow=hidden;rotatable=0;points=[[0,0.5],[1,0.5]];portConstraint=eastwest;" vertex="1" parent="Irn_uy4zuBTAPK6WRNLf-607">
          <mxGeometry y="26" width="140" height="26" as="geometry" />
        </mxCell>
        <mxCell id="Irn_uy4zuBTAPK6WRNLf-609" value="+ field: type" style="text;strokeColor=none;fillColor=none;align=left;verticalAlign=top;spacingLeft=4;spacingRight=4;overflow=hidden;rotatable=0;points=[[0,0.5],[1,0.5]];portConstraint=eastwest;" vertex="1" parent="Irn_uy4zuBTAPK6WRNLf-607">
          <mxGeometry y="52" width="140" height="26" as="geometry" />
        </mxCell>
        <mxCell id="Irn_uy4zuBTAPK6WRNLf-610" value="Company" style="swimlane;fontStyle=0;childLayout=stackLayout;horizontal=1;startSize=26;fillColor=none;horizontalStack=0;resizeParent=1;resizeParentMax=0;resizeLast=0;collapsible=1;marginBottom=0;" vertex="1" parent="Irn_uy4zuBTAPK6WRNLf-541">
          <mxGeometry x="433" y="926" width="140" height="52" as="geometry" />
        </mxCell>
        <mxCell id="Irn_uy4zuBTAPK6WRNLf-611" value="- id: int" style="text;strokeColor=none;fillColor=none;align=left;verticalAlign=top;spacingLeft=4;spacingRight=4;overflow=hidden;rotatable=0;points=[[0,0.5],[1,0.5]];portConstraint=eastwest;" vertex="1" parent="Irn_uy4zuBTAPK6WRNLf-610">
          <mxGeometry y="26" width="140" height="26" as="geometry" />
        </mxCell>
        <mxCell id="Irn_uy4zuBTAPK6WRNLf-612" value="QuantityReport" style="swimlane;fontStyle=0;childLayout=stackLayout;horizontal=1;startSize=26;fillColor=none;horizontalStack=0;resizeParent=1;resizeParentMax=0;resizeLast=0;collapsible=1;marginBottom=0;" vertex="1" parent="Irn_uy4zuBTAPK6WRNLf-541">
          <mxGeometry x="703" y="1298" width="320" height="104" as="geometry" />
        </mxCell>
        <mxCell id="Irn_uy4zuBTAPK6WRNLf-613" value="- itemVsQuantityVsDiscount: map&lt;Item, map&lt;int, float&gt;&gt;" style="text;strokeColor=none;fillColor=none;align=left;verticalAlign=top;spacingLeft=4;spacingRight=4;overflow=hidden;rotatable=0;points=[[0,0.5],[1,0.5]];portConstraint=eastwest;" vertex="1" parent="Irn_uy4zuBTAPK6WRNLf-612">
          <mxGeometry y="26" width="320" height="26" as="geometry" />
        </mxCell>
        <mxCell id="Irn_uy4zuBTAPK6WRNLf-614" value="+ field: type" style="text;strokeColor=none;fillColor=none;align=left;verticalAlign=top;spacingLeft=4;spacingRight=4;overflow=hidden;rotatable=0;points=[[0,0.5],[1,0.5]];portConstraint=eastwest;" vertex="1" parent="Irn_uy4zuBTAPK6WRNLf-612">
          <mxGeometry y="52" width="320" height="26" as="geometry" />
        </mxCell>
        <mxCell id="Irn_uy4zuBTAPK6WRNLf-615" value="+ field: type" style="text;strokeColor=none;fillColor=none;align=left;verticalAlign=top;spacingLeft=4;spacingRight=4;overflow=hidden;rotatable=0;points=[[0,0.5],[1,0.5]];portConstraint=eastwest;" vertex="1" parent="Irn_uy4zuBTAPK6WRNLf-612">
          <mxGeometry y="78" width="320" height="26" as="geometry" />
        </mxCell>
        <mxCell id="Irn_uy4zuBTAPK6WRNLf-616" value="Extends" style="endArrow=block;endSize=16;endFill=0;html=1;exitX=0.5;exitY=0;exitDx=0;exitDy=0;" edge="1" parent="Irn_uy4zuBTAPK6WRNLf-541" source="Irn_uy4zuBTAPK6WRNLf-587" target="Irn_uy4zuBTAPK6WRNLf-601">
          <mxGeometry width="160" relative="1" as="geometry">
            <mxPoint x="893" y="1010" as="sourcePoint" />
            <mxPoint x="783" y="1060" as="targetPoint" />
          </mxGeometry>
        </mxCell>
        <mxCell id="Irn_uy4zuBTAPK6WRNLf-617" value="Extends" style="endArrow=block;endSize=16;endFill=0;html=1;entryX=0.643;entryY=0.962;entryDx=0;entryDy=0;entryPerimeter=0;exitX=0.5;exitY=0;exitDx=0;exitDy=0;" edge="1" parent="Irn_uy4zuBTAPK6WRNLf-541" source="Irn_uy4zuBTAPK6WRNLf-588" target="Irn_uy4zuBTAPK6WRNLf-601">
          <mxGeometry width="160" relative="1" as="geometry">
            <mxPoint x="893" y="1310" as="sourcePoint" />
            <mxPoint x="1053" y="1310" as="targetPoint" />
            <Array as="points">
              <mxPoint x="1010" y="1040" />
              <mxPoint x="940" y="1040" />
              <mxPoint x="940" y="1000" />
              <mxPoint x="873" y="1000" />
            </Array>
          </mxGeometry>
        </mxCell>
        <mxCell id="Irn_uy4zuBTAPK6WRNLf-618" value="SupplierCard" style="swimlane;fontStyle=0;childLayout=stackLayout;horizontal=1;startSize=26;fillColor=none;horizontalStack=0;resizeParent=1;resizeParentMax=0;resizeLast=0;collapsible=1;marginBottom=0;" vertex="1" parent="Irn_uy4zuBTAPK6WRNLf-541">
          <mxGeometry x="993" y="830" width="220" height="156" as="geometry" />
        </mxCell>
        <mxCell id="Irn_uy4zuBTAPK6WRNLf-619" value="- name: string" style="text;strokeColor=none;fillColor=none;align=left;verticalAlign=top;spacingLeft=4;spacingRight=4;overflow=hidden;rotatable=0;points=[[0,0.5],[1,0.5]];portConstraint=eastwest;" vertex="1" parent="Irn_uy4zuBTAPK6WRNLf-618">
          <mxGeometry y="26" width="220" height="26" as="geometry" />
        </mxCell>
        <mxCell id="Irn_uy4zuBTAPK6WRNLf-620" value="- privateCompanyId: int" style="text;strokeColor=none;fillColor=none;align=left;verticalAlign=top;spacingLeft=4;spacingRight=4;overflow=hidden;rotatable=0;points=[[0,0.5],[1,0.5]];portConstraint=eastwest;" vertex="1" parent="Irn_uy4zuBTAPK6WRNLf-618">
          <mxGeometry y="52" width="220" height="26" as="geometry" />
        </mxCell>
        <mxCell id="Irn_uy4zuBTAPK6WRNLf-621" value="- paymentMethod: string" style="text;strokeColor=none;fillColor=none;align=left;verticalAlign=top;spacingLeft=4;spacingRight=4;overflow=hidden;rotatable=0;points=[[0,0.5],[1,0.5]];portConstraint=eastwest;" vertex="1" parent="Irn_uy4zuBTAPK6WRNLf-618">
          <mxGeometry y="78" width="220" height="26" as="geometry" />
        </mxCell>
        <mxCell id="Irn_uy4zuBTAPK6WRNLf-622" value="- Contacts: List&lt;ContactPerson&gt;" style="text;strokeColor=none;fillColor=none;align=left;verticalAlign=top;spacingLeft=4;spacingRight=4;overflow=hidden;rotatable=0;points=[[0,0.5],[1,0.5]];portConstraint=eastwest;" vertex="1" parent="Irn_uy4zuBTAPK6WRNLf-618">
          <mxGeometry y="104" width="220" height="26" as="geometry" />
        </mxCell>
        <mxCell id="Irn_uy4zuBTAPK6WRNLf-623" value="- bankAccount: string" style="text;strokeColor=none;fillColor=none;align=left;verticalAlign=top;spacingLeft=4;spacingRight=4;overflow=hidden;rotatable=0;points=[[0,0.5],[1,0.5]];portConstraint=eastwest;" vertex="1" parent="Irn_uy4zuBTAPK6WRNLf-618">
          <mxGeometry y="130" width="220" height="26" as="geometry" />
        </mxCell>
        <mxCell id="Irn_uy4zuBTAPK6WRNLf-624" value="" style="endArrow=diamondThin;endFill=1;endSize=24;html=1;exitX=0;exitY=0.5;exitDx=0;exitDy=0;entryX=0.5;entryY=0;entryDx=0;entryDy=0;" edge="1" parent="Irn_uy4zuBTAPK6WRNLf-541" source="Irn_uy4zuBTAPK6WRNLf-619" target="Irn_uy4zuBTAPK6WRNLf-600">
          <mxGeometry width="160" relative="1" as="geometry">
            <mxPoint x="893" y="1030" as="sourcePoint" />
            <mxPoint x="933" y="960" as="targetPoint" />
            <Array as="points">
              <mxPoint x="853" y="869" />
            </Array>
          </mxGeometry>
        </mxCell>
        <mxCell id="Irn_uy4zuBTAPK6WRNLf-625" value="" style="endArrow=diamondThin;endFill=0;endSize=24;html=1;entryX=0;entryY=0.25;entryDx=0;entryDy=0;exitX=1;exitY=0.25;exitDx=0;exitDy=0;" edge="1" parent="Irn_uy4zuBTAPK6WRNLf-541" source="Irn_uy4zuBTAPK6WRNLf-610" target="Irn_uy4zuBTAPK6WRNLf-600">
          <mxGeometry width="160" relative="1" as="geometry">
            <mxPoint x="583" y="933" as="sourcePoint" />
            <mxPoint x="783" y="939" as="targetPoint" />
            <Array as="points">
              <mxPoint x="633" y="939" />
              <mxPoint x="633" y="913" />
            </Array>
          </mxGeometry>
        </mxCell>
        <mxCell id="Irn_uy4zuBTAPK6WRNLf-626" value="manufacturer" style="swimlane;fontStyle=0;childLayout=stackLayout;horizontal=1;startSize=26;fillColor=none;horizontalStack=0;resizeParent=1;resizeParentMax=0;resizeLast=0;collapsible=1;marginBottom=0;" vertex="1" parent="Irn_uy4zuBTAPK6WRNLf-541">
          <mxGeometry x="203" y="1220" width="140" height="52" as="geometry" />
        </mxCell>
        <mxCell id="Irn_uy4zuBTAPK6WRNLf-627" value="+ field: type" style="text;strokeColor=none;fillColor=none;align=left;verticalAlign=top;spacingLeft=4;spacingRight=4;overflow=hidden;rotatable=0;points=[[0,0.5],[1,0.5]];portConstraint=eastwest;" vertex="1" parent="Irn_uy4zuBTAPK6WRNLf-626">
          <mxGeometry y="26" width="140" height="26" as="geometry" />
        </mxCell>
        <mxCell id="Irn_uy4zuBTAPK6WRNLf-628" value="" style="endArrow=diamondThin;endFill=1;endSize=24;html=1;fontColor=#FF3333;entryX=0;entryY=0.75;entryDx=0;entryDy=0;exitX=0.75;exitY=0;exitDx=0;exitDy=0;" edge="1" parent="Irn_uy4zuBTAPK6WRNLf-541" source="Irn_uy4zuBTAPK6WRNLf-589" target="Irn_uy4zuBTAPK6WRNLf-600">
          <mxGeometry width="160" relative="1" as="geometry">
            <mxPoint x="748" y="1050" as="sourcePoint" />
            <mxPoint x="783" y="965" as="targetPoint" />
            <Array as="points">
              <mxPoint x="748" y="939" />
            </Array>
          </mxGeometry>
        </mxCell>
        <mxCell id="Irn_uy4zuBTAPK6WRNLf-629" value="" style="endArrow=diamondThin;endFill=0;endSize=24;html=1;fontColor=#FF3333;exitX=1;exitY=0.5;exitDx=0;exitDy=0;entryX=0;entryY=0.5;entryDx=0;entryDy=0;" edge="1" parent="Irn_uy4zuBTAPK6WRNLf-541" source="Irn_uy4zuBTAPK6WRNLf-605" target="Irn_uy4zuBTAPK6WRNLf-613">
          <mxGeometry width="160" relative="1" as="geometry">
            <mxPoint x="763" y="1480" as="sourcePoint" />
            <mxPoint x="923" y="1480" as="targetPoint" />
            <Array as="points">
              <mxPoint x="623" y="1259" />
              <mxPoint x="623" y="1337" />
            </Array>
          </mxGeometry>
        </mxCell>
        <mxCell id="Irn_uy4zuBTAPK6WRNLf-630" value="" style="endArrow=diamondThin;endFill=1;endSize=24;html=1;fontColor=#FF3333;entryX=0.25;entryY=0;entryDx=0;entryDy=0;exitX=0.5;exitY=0;exitDx=0;exitDy=0;" edge="1" parent="Irn_uy4zuBTAPK6WRNLf-541" source="Irn_uy4zuBTAPK6WRNLf-602" target="Irn_uy4zuBTAPK6WRNLf-600">
          <mxGeometry width="160" relative="1" as="geometry">
            <mxPoint x="193" y="1140" as="sourcePoint" />
            <mxPoint x="183" y="940" as="targetPoint" />
            <Array as="points">
              <mxPoint x="268" y="850" />
              <mxPoint x="818" y="850" />
            </Array>
          </mxGeometry>
        </mxCell>
        <mxCell id="Irn_uy4zuBTAPK6WRNLf-631" value="Controls" style="endArrow=open;endSize=12;html=1;exitX=0.5;exitY=1;exitDx=0;exitDy=0;entryX=0;entryY=0.25;entryDx=0;entryDy=0;" edge="1" parent="Irn_uy4zuBTAPK6WRNLf-541" source="Irn_uy4zuBTAPK6WRNLf-642" target="Irn_uy4zuBTAPK6WRNLf-607">
          <mxGeometry x="-0.0013" width="160" relative="1" as="geometry">
            <mxPoint x="1233" y="590" as="sourcePoint" />
            <mxPoint x="103" y="1440" as="targetPoint" />
            <Array as="points">
              <mxPoint x="513" y="700" />
              <mxPoint x="103" y="700" />
              <mxPoint x="103" y="1400" />
            </Array>
            <mxPoint as="offset" />
          </mxGeometry>
        </mxCell>
        <mxCell id="Irn_uy4zuBTAPK6WRNLf-632" value="Controls" style="endArrow=open;endSize=12;html=1;exitX=0.5;exitY=1;exitDx=0;exitDy=0;entryX=0.5;entryY=0;entryDx=0;entryDy=0;" edge="1" parent="Irn_uy4zuBTAPK6WRNLf-541" source="Irn_uy4zuBTAPK6WRNLf-644" target="Irn_uy4zuBTAPK6WRNLf-589">
          <mxGeometry x="-0.1055" width="160" relative="1" as="geometry">
            <mxPoint x="1243" y="600" as="sourcePoint" />
            <mxPoint x="703" y="1050" as="targetPoint" />
            <mxPoint as="offset" />
          </mxGeometry>
        </mxCell>
        <mxCell id="Irn_uy4zuBTAPK6WRNLf-633" value="Controls" style="endArrow=open;endSize=12;html=1;exitX=0.5;exitY=1;exitDx=0;exitDy=0;entryX=0.75;entryY=0;entryDx=0;entryDy=0;" edge="1" parent="Irn_uy4zuBTAPK6WRNLf-541" source="Irn_uy4zuBTAPK6WRNLf-643" target="Irn_uy4zuBTAPK6WRNLf-600">
          <mxGeometry x="-0.4518" y="1" width="160" relative="1" as="geometry">
            <mxPoint x="893" y="700" as="sourcePoint" />
            <mxPoint x="888" y="900" as="targetPoint" />
            <Array as="points" />
            <mxPoint as="offset" />
          </mxGeometry>
        </mxCell>
        <mxCell id="Irn_uy4zuBTAPK6WRNLf-634" value="" style="group" vertex="1" connectable="0" parent="Irn_uy4zuBTAPK6WRNLf-541">
          <mxGeometry x="478" y="112" width="460" height="152" as="geometry" />
        </mxCell>
        <mxCell id="Irn_uy4zuBTAPK6WRNLf-635" value="MainMenu" style="swimlane;fontStyle=0;childLayout=stackLayout;horizontal=1;startSize=26;fillColor=none;horizontalStack=0;resizeParent=1;resizeParentMax=0;resizeLast=0;collapsible=1;marginBottom=0;" vertex="1" parent="Irn_uy4zuBTAPK6WRNLf-634">
          <mxGeometry x="160" width="140" height="52" as="geometry" />
        </mxCell>
        <mxCell id="Irn_uy4zuBTAPK6WRNLf-636" value="OrdersMenu" style="swimlane;fontStyle=0;childLayout=stackLayout;horizontal=1;startSize=26;fillColor=none;horizontalStack=0;resizeParent=1;resizeParentMax=0;resizeLast=0;collapsible=1;marginBottom=0;" vertex="1" parent="Irn_uy4zuBTAPK6WRNLf-634">
          <mxGeometry y="100" width="140" height="52" as="geometry" />
        </mxCell>
        <mxCell id="Irn_uy4zuBTAPK6WRNLf-637" value="ContractsMenu" style="swimlane;fontStyle=0;childLayout=stackLayout;horizontal=1;startSize=26;fillColor=none;horizontalStack=0;resizeParent=1;resizeParentMax=0;resizeLast=0;collapsible=1;marginBottom=0;" vertex="1" parent="Irn_uy4zuBTAPK6WRNLf-634">
          <mxGeometry x="160" y="100" width="140" height="52" as="geometry" />
        </mxCell>
        <mxCell id="Irn_uy4zuBTAPK6WRNLf-638" value="SuppliersMenu" style="swimlane;fontStyle=0;childLayout=stackLayout;horizontal=1;startSize=26;fillColor=none;horizontalStack=0;resizeParent=1;resizeParentMax=0;resizeLast=0;collapsible=1;marginBottom=0;" vertex="1" parent="Irn_uy4zuBTAPK6WRNLf-634">
          <mxGeometry x="320" y="100" width="140" height="52" as="geometry" />
        </mxCell>
        <mxCell id="Irn_uy4zuBTAPK6WRNLf-639" value="subMenu" style="endArrow=open;endSize=12;html=1;exitX=0.25;exitY=1;exitDx=0;exitDy=0;entryX=0.5;entryY=0;entryDx=0;entryDy=0;" edge="1" parent="Irn_uy4zuBTAPK6WRNLf-634" source="Irn_uy4zuBTAPK6WRNLf-635" target="Irn_uy4zuBTAPK6WRNLf-636">
          <mxGeometry x="-0.1561" width="160" relative="1" as="geometry">
            <mxPoint x="90" y="80" as="sourcePoint" />
            <mxPoint x="250" y="80" as="targetPoint" />
            <Array as="points">
              <mxPoint x="195" y="80" />
              <mxPoint x="70" y="80" />
            </Array>
            <mxPoint as="offset" />
          </mxGeometry>
        </mxCell>
        <mxCell id="Irn_uy4zuBTAPK6WRNLf-640" value="subMenu" style="endArrow=open;endSize=12;html=1;exitX=0.75;exitY=1;exitDx=0;exitDy=0;entryX=0.5;entryY=0;entryDx=0;entryDy=0;" edge="1" parent="Irn_uy4zuBTAPK6WRNLf-634" source="Irn_uy4zuBTAPK6WRNLf-635" target="Irn_uy4zuBTAPK6WRNLf-638">
          <mxGeometry x="-0.0405" width="160" relative="1" as="geometry">
            <mxPoint x="90" y="80" as="sourcePoint" />
            <mxPoint x="250" y="80" as="targetPoint" />
            <Array as="points">
              <mxPoint x="265" y="80" />
              <mxPoint x="390" y="80" />
            </Array>
            <mxPoint as="offset" />
          </mxGeometry>
        </mxCell>
        <mxCell id="Irn_uy4zuBTAPK6WRNLf-641" value="subMenu" style="endArrow=open;endSize=12;html=1;exitX=0.5;exitY=1;exitDx=0;exitDy=0;entryX=0.5;entryY=0;entryDx=0;entryDy=0;" edge="1" parent="Irn_uy4zuBTAPK6WRNLf-634" source="Irn_uy4zuBTAPK6WRNLf-635" target="Irn_uy4zuBTAPK6WRNLf-637">
          <mxGeometry width="160" relative="1" as="geometry">
            <mxPoint x="90" y="80" as="sourcePoint" />
            <mxPoint x="250" y="80" as="targetPoint" />
          </mxGeometry>
        </mxCell>
        <mxCell id="Irn_uy4zuBTAPK6WRNLf-642" value="OrderController" style="swimlane;fontStyle=0;childLayout=stackLayout;horizontal=1;startSize=26;fillColor=none;horizontalStack=0;resizeParent=1;resizeParentMax=0;resizeLast=0;collapsible=1;marginBottom=0;" vertex="1" parent="Irn_uy4zuBTAPK6WRNLf-541">
          <mxGeometry x="443" y="600" width="140" height="52" as="geometry" />
        </mxCell>
        <mxCell id="Irn_uy4zuBTAPK6WRNLf-643" value="SupplierController" style="swimlane;fontStyle=0;childLayout=stackLayout;horizontal=1;startSize=26;fillColor=none;horizontalStack=0;resizeParent=1;resizeParentMax=0;resizeLast=0;collapsible=1;marginBottom=0;" vertex="1" parent="Irn_uy4zuBTAPK6WRNLf-541">
          <mxGeometry x="823" y="600" width="140" height="52" as="geometry" />
        </mxCell>
        <mxCell id="Irn_uy4zuBTAPK6WRNLf-644" value="ContractController" style="swimlane;fontStyle=0;childLayout=stackLayout;horizontal=1;startSize=26;fillColor=none;horizontalStack=0;resizeParent=1;resizeParentMax=0;resizeLast=0;collapsible=1;marginBottom=0;" vertex="1" parent="Irn_uy4zuBTAPK6WRNLf-541">
          <mxGeometry x="633" y="600" width="140" height="52" as="geometry" />
        </mxCell>
        <mxCell id="Irn_uy4zuBTAPK6WRNLf-645" value="Application Facade" style="swimlane;fontStyle=0;childLayout=stackLayout;horizontal=1;startSize=26;fillColor=none;horizontalStack=0;resizeParent=1;resizeParentMax=0;resizeLast=0;collapsible=1;marginBottom=0;" vertex="1" parent="Irn_uy4zuBTAPK6WRNLf-541">
          <mxGeometry x="633" y="440" width="140" height="52" as="geometry" />
        </mxCell>
        <mxCell id="Irn_uy4zuBTAPK6WRNLf-646" value="navigate" style="endArrow=open;endSize=12;html=1;exitX=0.5;exitY=1;exitDx=0;exitDy=0;entryX=0.5;entryY=0;entryDx=0;entryDy=0;" edge="1" parent="Irn_uy4zuBTAPK6WRNLf-541" source="Irn_uy4zuBTAPK6WRNLf-645" target="Irn_uy4zuBTAPK6WRNLf-644">
          <mxGeometry x="213" y="330" width="160" as="geometry">
            <mxPoint x="253" y="344" as="sourcePoint" />
            <mxPoint x="413" y="344" as="targetPoint" />
          </mxGeometry>
        </mxCell>
        <mxCell id="Irn_uy4zuBTAPK6WRNLf-647" value="navigate" style="endArrow=open;endSize=12;html=1;exitX=0.25;exitY=1;exitDx=0;exitDy=0;entryX=0.5;entryY=0;entryDx=0;entryDy=0;" edge="1" parent="Irn_uy4zuBTAPK6WRNLf-541" source="Irn_uy4zuBTAPK6WRNLf-645" target="Irn_uy4zuBTAPK6WRNLf-642">
          <mxGeometry x="213" y="330" width="160" as="geometry">
            <mxPoint x="263" y="354" as="sourcePoint" />
            <mxPoint x="423" y="354" as="targetPoint" />
            <Array as="points">
              <mxPoint x="668" y="560" />
              <mxPoint x="513" y="560" />
            </Array>
          </mxGeometry>
        </mxCell>
        <mxCell id="Irn_uy4zuBTAPK6WRNLf-648" value="navigate" style="endArrow=open;endSize=12;html=1;exitX=0.75;exitY=1;exitDx=0;exitDy=0;entryX=0.5;entryY=0;entryDx=0;entryDy=0;" edge="1" parent="Irn_uy4zuBTAPK6WRNLf-541" source="Irn_uy4zuBTAPK6WRNLf-645" target="Irn_uy4zuBTAPK6WRNLf-643">
          <mxGeometry x="213" y="330" width="160" as="geometry">
            <mxPoint x="533" y="580" as="sourcePoint" />
            <mxPoint x="693" y="580" as="targetPoint" />
            <Array as="points">
              <mxPoint x="738" y="560" />
              <mxPoint x="893" y="560" />
            </Array>
            <mxPoint as="offset" />
          </mxGeometry>
        </mxCell>
        <mxCell id="Irn_uy4zuBTAPK6WRNLf-649" value="Business Layer" style="text;align=center;fontStyle=1;verticalAlign=middle;spacingLeft=3;spacingRight=3;strokeColor=none;rotatable=0;points=[[0,0.5],[1,0.5]];portConstraint=eastwest;fillColor=none;" vertex="1" parent="Irn_uy4zuBTAPK6WRNLf-541">
          <mxGeometry x="63" y="330" width="110" height="26" as="geometry" />
        </mxCell>
        <mxCell id="Irn_uy4zuBTAPK6WRNLf-650" value="Displays" style="endArrow=open;endSize=12;html=1;exitX=0.5;exitY=1;exitDx=0;exitDy=0;entryX=0.25;entryY=0;entryDx=0;entryDy=0;" edge="1" parent="Irn_uy4zuBTAPK6WRNLf-541" source="Irn_uy4zuBTAPK6WRNLf-636" target="Irn_uy4zuBTAPK6WRNLf-645">
          <mxGeometry x="-0.25" width="160" relative="1" as="geometry">
            <mxPoint x="1070" as="sourcePoint" />
            <mxPoint x="943" y="360" as="targetPoint" />
            <Array as="points">
              <mxPoint x="548" y="300" />
              <mxPoint x="668" y="300" />
            </Array>
            <mxPoint as="offset" />
          </mxGeometry>
        </mxCell>
        <mxCell id="Irn_uy4zuBTAPK6WRNLf-651" value="Displays" style="endArrow=open;endSize=12;html=1;exitX=0.5;exitY=1;exitDx=0;exitDy=0;entryX=0.75;entryY=0;entryDx=0;entryDy=0;" edge="1" parent="Irn_uy4zuBTAPK6WRNLf-541" source="Irn_uy4zuBTAPK6WRNLf-638" target="Irn_uy4zuBTAPK6WRNLf-645">
          <mxGeometry x="-0.2549" width="160" relative="1" as="geometry">
            <mxPoint x="557.9999999999998" y="274" as="sourcePoint" />
            <mxPoint x="953" y="370" as="targetPoint" />
            <Array as="points">
              <mxPoint x="868" y="300" />
              <mxPoint x="738" y="300" />
            </Array>
            <mxPoint as="offset" />
          </mxGeometry>
        </mxCell>
        <mxCell id="Irn_uy4zuBTAPK6WRNLf-652" value="Displays" style="endArrow=open;endSize=12;html=1;exitX=0.5;exitY=1;exitDx=0;exitDy=0;entryX=0.5;entryY=0;entryDx=0;entryDy=0;" edge="1" parent="Irn_uy4zuBTAPK6WRNLf-541" source="Irn_uy4zuBTAPK6WRNLf-637" target="Irn_uy4zuBTAPK6WRNLf-645">
          <mxGeometry x="-0.2506" y="2" width="160" relative="1" as="geometry">
            <mxPoint x="567.9999999999998" y="284" as="sourcePoint" />
            <mxPoint x="963" y="380" as="targetPoint" />
            <mxPoint as="offset" />
          </mxGeometry>
        </mxCell>
        <mxCell id="Irn_uy4zuBTAPK6WRNLf-653" value="" style="group" vertex="1" connectable="0" parent="Irn_uy4zuBTAPK6WRNLf-541">
          <mxGeometry x="583" y="1350" width="104" height="95" as="geometry" />
        </mxCell>
        <mxCell id="Irn_uy4zuBTAPK6WRNLf-654" value="&lt;font color=&quot;#000000&quot;&gt;discountApply&lt;/font&gt;" style="endArrow=open;endSize=12;html=1;fontColor=#FF3333;exitX=1;exitY=0.5;exitDx=0;exitDy=0;entryX=0;entryY=0.5;entryDx=0;entryDy=0;" edge="1" parent="Irn_uy4zuBTAPK6WRNLf-653" target="Irn_uy4zuBTAPK6WRNLf-614">
          <mxGeometry x="-0.1584" width="160" relative="1" as="geometry">
            <mxPoint y="95" as="sourcePoint" />
            <mxPoint x="80" y="130" as="targetPoint" />
            <Array as="points">
              <mxPoint x="40" y="95" />
              <mxPoint x="40" y="13" />
            </Array>
            <mxPoint as="offset" />
          </mxGeometry>
        </mxCell>
        <mxCell id="Irn_uy4zuBTAPK6WRNLf-655" value="0 ... *" style="text;html=1;strokeColor=none;fillColor=none;align=center;verticalAlign=middle;whiteSpace=wrap;rounded=0;" vertex="1" parent="Irn_uy4zuBTAPK6WRNLf-653">
          <mxGeometry y="80" width="37" height="10" as="geometry" />
        </mxCell>
        <mxCell id="Irn_uy4zuBTAPK6WRNLf-656" value="0 ... 1" style="text;html=1;strokeColor=none;fillColor=none;align=center;verticalAlign=middle;whiteSpace=wrap;rounded=0;" vertex="1" parent="Irn_uy4zuBTAPK6WRNLf-653">
          <mxGeometry x="67" width="37" height="10" as="geometry" />
        </mxCell>
        <mxCell id="Irn_uy4zuBTAPK6WRNLf-657" value="0 ... 1" style="text;html=1;strokeColor=none;fillColor=none;align=center;verticalAlign=middle;whiteSpace=wrap;rounded=0;" vertex="1" parent="Irn_uy4zuBTAPK6WRNLf-541">
          <mxGeometry x="643" y="1326" width="37" height="10" as="geometry" />
        </mxCell>
        <mxCell id="Irn_uy4zuBTAPK6WRNLf-658" value="0 ... *" style="text;html=1;strokeColor=none;fillColor=none;align=center;verticalAlign=middle;whiteSpace=wrap;rounded=0;" vertex="1" parent="Irn_uy4zuBTAPK6WRNLf-541">
          <mxGeometry x="581" y="1248" width="37" height="10" as="geometry" />
        </mxCell>
        <mxCell id="Irn_uy4zuBTAPK6WRNLf-659" value="" style="group" vertex="1" connectable="0" parent="Irn_uy4zuBTAPK6WRNLf-541">
          <mxGeometry x="581" y="1248" width="99" height="89" as="geometry" />
        </mxCell>
        <mxCell id="Irn_uy4zuBTAPK6WRNLf-660" value="0 ... *" style="text;html=1;strokeColor=none;fillColor=none;align=center;verticalAlign=middle;whiteSpace=wrap;rounded=0;" vertex="1" parent="Irn_uy4zuBTAPK6WRNLf-659">
          <mxGeometry width="37" height="10" as="geometry" />
        </mxCell>
        <mxCell id="Irn_uy4zuBTAPK6WRNLf-661" value="" style="endArrow=diamondThin;endFill=0;endSize=24;html=1;fontColor=#FF3333;exitX=1;exitY=0.5;exitDx=0;exitDy=0;entryX=0;entryY=0.5;entryDx=0;entryDy=0;" edge="1" parent="Irn_uy4zuBTAPK6WRNLf-659">
          <mxGeometry width="160" relative="1" as="geometry">
            <mxPoint x="2" y="11" as="sourcePoint" />
            <mxPoint x="122" y="89" as="targetPoint" />
            <Array as="points">
              <mxPoint x="42" y="11" />
              <mxPoint x="42" y="89" />
            </Array>
          </mxGeometry>
        </mxCell>
        <mxCell id="Irn_uy4zuBTAPK6WRNLf-662" value="0 ... 1" style="text;html=1;strokeColor=none;fillColor=none;align=center;verticalAlign=middle;whiteSpace=wrap;rounded=0;" vertex="1" parent="Irn_uy4zuBTAPK6WRNLf-659">
          <mxGeometry x="62" y="78" width="37" height="10" as="geometry" />
        </mxCell>
        <mxCell id="Irn_uy4zuBTAPK6WRNLf-663" value="" style="group" vertex="1" connectable="0" parent="Irn_uy4zuBTAPK6WRNLf-541">
          <mxGeometry x="543" y="1105" width="47" height="115" as="geometry" />
        </mxCell>
        <mxCell id="Irn_uy4zuBTAPK6WRNLf-664" value="1 ... *" style="text;html=1;strokeColor=none;fillColor=none;align=center;verticalAlign=middle;whiteSpace=wrap;rounded=0;" vertex="1" parent="Irn_uy4zuBTAPK6WRNLf-663">
          <mxGeometry y="105" width="40" height="10" as="geometry" />
        </mxCell>
        <mxCell id="Irn_uy4zuBTAPK6WRNLf-665" value="0 ... *" style="text;html=1;strokeColor=none;fillColor=none;align=center;verticalAlign=middle;whiteSpace=wrap;rounded=0;" vertex="1" parent="Irn_uy4zuBTAPK6WRNLf-663">
          <mxGeometry x="7" y="38" width="40" height="10" as="geometry" />
        </mxCell>
        <mxCell id="Irn_uy4zuBTAPK6WRNLf-666" value="" style="group" vertex="1" connectable="0" parent="Irn_uy4zuBTAPK6WRNLf-541">
          <mxGeometry x="510" y="1300" width="40" height="55" as="geometry" />
        </mxCell>
        <mxCell id="Irn_uy4zuBTAPK6WRNLf-668" value="1 ... *" style="text;html=1;strokeColor=none;fillColor=none;align=center;verticalAlign=middle;whiteSpace=wrap;rounded=0;" vertex="1" parent="Irn_uy4zuBTAPK6WRNLf-666">
          <mxGeometry width="40" height="10" as="geometry" />
        </mxCell>
        <mxCell id="Irn_uy4zuBTAPK6WRNLf-669" value="0 ... *" style="text;html=1;strokeColor=none;fillColor=none;align=center;verticalAlign=middle;whiteSpace=wrap;rounded=0;" vertex="1" parent="Irn_uy4zuBTAPK6WRNLf-666">
          <mxGeometry y="45" width="40" height="10" as="geometry" />
        </mxCell>
        <mxCell id="Irn_uy4zuBTAPK6WRNLf-670" value="1 ... *" style="text;html=1;strokeColor=none;fillColor=none;align=center;verticalAlign=middle;whiteSpace=wrap;rounded=0;" vertex="1" parent="Irn_uy4zuBTAPK6WRNLf-541">
          <mxGeometry x="472" y="1209" width="40" height="10" as="geometry" />
        </mxCell>
        <mxCell id="Irn_uy4zuBTAPK6WRNLf-671" value="1" style="text;html=1;strokeColor=none;fillColor=none;align=center;verticalAlign=middle;whiteSpace=wrap;rounded=0;" vertex="1" parent="Irn_uy4zuBTAPK6WRNLf-541">
          <mxGeometry x="467" y="1000" width="50" height="10" as="geometry" />
        </mxCell>
        <mxCell id="Irn_uy4zuBTAPK6WRNLf-672" value="1" style="text;html=1;strokeColor=none;fillColor=none;align=center;verticalAlign=middle;whiteSpace=wrap;rounded=0;" vertex="1" parent="Irn_uy4zuBTAPK6WRNLf-541">
          <mxGeometry x="467" y="1000" width="50" height="10" as="geometry" />
        </mxCell>
        <mxCell id="Irn_uy4zuBTAPK6WRNLf-673" value="" style="group" vertex="1" connectable="0" parent="Irn_uy4zuBTAPK6WRNLf-541">
          <mxGeometry x="467" y="978" width="50" height="241" as="geometry" />
        </mxCell>
        <mxCell id="Irn_uy4zuBTAPK6WRNLf-674" value="" style="endArrow=diamondThin;endFill=1;endSize=24;html=1;exitX=0.5;exitY=0;exitDx=0;exitDy=0;" edge="1" parent="Irn_uy4zuBTAPK6WRNLf-673" source="Irn_uy4zuBTAPK6WRNLf-604">
          <mxGeometry width="160" relative="1" as="geometry">
            <mxPoint x="46" y="232" as="sourcePoint" />
            <mxPoint x="46" as="targetPoint" />
          </mxGeometry>
        </mxCell>
        <mxCell id="Irn_uy4zuBTAPK6WRNLf-675" value="1" style="text;html=1;strokeColor=none;fillColor=none;align=center;verticalAlign=middle;whiteSpace=wrap;rounded=0;" vertex="1" parent="Irn_uy4zuBTAPK6WRNLf-673">
          <mxGeometry y="22" width="50" height="10" as="geometry" />
        </mxCell>
        <mxCell id="Irn_uy4zuBTAPK6WRNLf-676" value="1 ... *" style="text;html=1;strokeColor=none;fillColor=none;align=center;verticalAlign=middle;whiteSpace=wrap;rounded=0;" vertex="1" parent="Irn_uy4zuBTAPK6WRNLf-673">
          <mxGeometry x="5" y="231" width="40" height="10" as="geometry" />
        </mxCell>
        <mxCell id="Irn_uy4zuBTAPK6WRNLf-677" value="1" style="text;html=1;strokeColor=none;fillColor=none;align=center;verticalAlign=middle;whiteSpace=wrap;rounded=0;" vertex="1" parent="Irn_uy4zuBTAPK6WRNLf-541">
          <mxGeometry x="359" y="1226" width="30" as="geometry" />
        </mxCell>
        <mxCell id="Irn_uy4zuBTAPK6WRNLf-678" value="1 ... *" style="text;html=1;strokeColor=none;fillColor=none;align=center;verticalAlign=middle;whiteSpace=wrap;rounded=0;" vertex="1" parent="Irn_uy4zuBTAPK6WRNLf-541">
          <mxGeometry x="403" y="1272" width="40" height="10" as="geometry" />
        </mxCell>
        <mxCell id="Irn_uy4zuBTAPK6WRNLf-679" value="" style="group" vertex="1" connectable="0" parent="Irn_uy4zuBTAPK6WRNLf-541">
          <mxGeometry x="359" y="1226" width="84" height="59" as="geometry" />
        </mxCell>
        <mxCell id="Irn_uy4zuBTAPK6WRNLf-681" value="1 ... *" style="text;html=1;strokeColor=none;fillColor=none;align=center;verticalAlign=middle;whiteSpace=wrap;rounded=0;" vertex="1" parent="Irn_uy4zuBTAPK6WRNLf-679">
          <mxGeometry x="44" y="46" width="40" height="10" as="geometry" />
        </mxCell>
        <mxCell id="Irn_uy4zuBTAPK6WRNLf-682" value="1" style="text;html=1;strokeColor=none;fillColor=none;align=center;verticalAlign=middle;whiteSpace=wrap;rounded=0;" vertex="1" parent="Irn_uy4zuBTAPK6WRNLf-679">
          <mxGeometry width="30" as="geometry" />
        </mxCell>
        <mxCell id="Irn_uy4zuBTAPK6WRNLf-683" value="1" style="text;html=1;strokeColor=none;fillColor=none;align=center;verticalAlign=middle;whiteSpace=wrap;rounded=0;" vertex="1" parent="Irn_uy4zuBTAPK6WRNLf-541">
          <mxGeometry x="370" y="1120" width="30" height="10" as="geometry" />
        </mxCell>
        <mxCell id="Irn_uy4zuBTAPK6WRNLf-684" value="1 ... *" style="text;html=1;strokeColor=none;fillColor=none;align=center;verticalAlign=middle;whiteSpace=wrap;rounded=0;" vertex="1" parent="Irn_uy4zuBTAPK6WRNLf-541">
          <mxGeometry x="403" y="1248" width="40" height="10" as="geometry" />
        </mxCell>
        <mxCell id="Irn_uy4zuBTAPK6WRNLf-685" value="1 ... *" style="text;html=1;strokeColor=none;fillColor=none;align=center;verticalAlign=middle;whiteSpace=wrap;rounded=0;" vertex="1" parent="Irn_uy4zuBTAPK6WRNLf-541">
          <mxGeometry x="403" y="1248" width="40" height="10" as="geometry" />
        </mxCell>
        <mxCell id="Irn_uy4zuBTAPK6WRNLf-686" value="1" style="text;html=1;strokeColor=none;fillColor=none;align=center;verticalAlign=middle;whiteSpace=wrap;rounded=0;" vertex="1" parent="Irn_uy4zuBTAPK6WRNLf-541">
          <mxGeometry x="370" y="1120" width="30" height="10" as="geometry" />
        </mxCell>
        <mxCell id="Irn_uy4zuBTAPK6WRNLf-687" value="" style="group" vertex="1" connectable="0" parent="Irn_uy4zuBTAPK6WRNLf-541">
          <mxGeometry x="370" y="1120" width="73" height="139" as="geometry" />
        </mxCell>
        <mxCell id="Irn_uy4zuBTAPK6WRNLf-689" value="1 ... *" style="text;html=1;strokeColor=none;fillColor=none;align=center;verticalAlign=middle;whiteSpace=wrap;rounded=0;" vertex="1" parent="Irn_uy4zuBTAPK6WRNLf-687">
          <mxGeometry x="33" y="128" width="40" height="10" as="geometry" />
        </mxCell>
        <mxCell id="Irn_uy4zuBTAPK6WRNLf-690" value="1" style="text;html=1;strokeColor=none;fillColor=none;align=center;verticalAlign=middle;whiteSpace=wrap;rounded=0;" vertex="1" parent="Irn_uy4zuBTAPK6WRNLf-687">
          <mxGeometry width="30" height="10" as="geometry" />
        </mxCell>
        <mxCell id="Irn_uy4zuBTAPK6WRNLf-691" value="0 ... 1" style="text;html=1;strokeColor=none;fillColor=none;align=center;verticalAlign=middle;whiteSpace=wrap;rounded=0;" vertex="1" parent="Irn_uy4zuBTAPK6WRNLf-541">
          <mxGeometry x="860" y="1280" width="40" height="20" as="geometry" />
        </mxCell>
        <mxCell id="Irn_uy4zuBTAPK6WRNLf-692" value="" style="group" vertex="1" connectable="0" parent="Irn_uy4zuBTAPK6WRNLf-541">
          <mxGeometry x="688" y="1158" width="212" height="142" as="geometry" />
        </mxCell>
        <mxCell id="Irn_uy4zuBTAPK6WRNLf-693" value="1" style="text;html=1;strokeColor=none;fillColor=none;align=center;verticalAlign=middle;whiteSpace=wrap;rounded=0;" vertex="1" parent="Irn_uy4zuBTAPK6WRNLf-692">
          <mxGeometry y="14" width="40" height="20" as="geometry" />
        </mxCell>
        <mxCell id="Irn_uy4zuBTAPK6WRNLf-694" value="0 ... 1" style="text;html=1;strokeColor=none;fillColor=none;align=center;verticalAlign=middle;whiteSpace=wrap;rounded=0;" vertex="1" parent="Irn_uy4zuBTAPK6WRNLf-692">
          <mxGeometry x="172" y="122" width="40" height="20" as="geometry" />
        </mxCell>
        <mxCell id="Irn_uy4zuBTAPK6WRNLf-695" value="1" style="text;html=1;strokeColor=none;fillColor=none;align=center;verticalAlign=middle;whiteSpace=wrap;rounded=0;" vertex="1" parent="Irn_uy4zuBTAPK6WRNLf-541">
          <mxGeometry x="783" y="850" width="40" height="20" as="geometry" />
        </mxCell>
        <mxCell id="Irn_uy4zuBTAPK6WRNLf-696" value="" style="group" vertex="1" connectable="0" parent="Irn_uy4zuBTAPK6WRNLf-541">
          <mxGeometry x="720" y="939" width="40" height="111" as="geometry" />
        </mxCell>
        <mxCell id="Irn_uy4zuBTAPK6WRNLf-697" value="1" style="text;html=1;strokeColor=none;fillColor=none;align=center;verticalAlign=middle;whiteSpace=wrap;rounded=0;" vertex="1" parent="Irn_uy4zuBTAPK6WRNLf-696">
          <mxGeometry y="130" width="40" height="20" as="geometry" />
        </mxCell>
        <mxCell id="Irn_uy4zuBTAPK6WRNLf-698" value="1" style="text;html=1;strokeColor=none;fillColor=none;align=center;verticalAlign=middle;whiteSpace=wrap;rounded=0;" vertex="1" parent="Irn_uy4zuBTAPK6WRNLf-696">
          <mxGeometry y="3" width="40" height="20" as="geometry" />
        </mxCell>
        <mxCell id="Irn_uy4zuBTAPK6WRNLf-699" value="" style="endArrow=diamondThin;endFill=1;endSize=24;html=1;fontColor=#FF3333;entryX=0;entryY=0.75;entryDx=0;entryDy=0;exitX=0.75;exitY=0;exitDx=0;exitDy=0;" edge="1" parent="Irn_uy4zuBTAPK6WRNLf-696">
          <mxGeometry width="160" relative="1" as="geometry">
            <mxPoint x="28" y="111" as="sourcePoint" />
            <mxPoint x="63" as="targetPoint" />
            <Array as="points">
              <mxPoint x="28" />
            </Array>
          </mxGeometry>
        </mxCell>
        <mxCell id="Irn_uy4zuBTAPK6WRNLf-700" value="1 ... *" style="text;html=1;strokeColor=none;fillColor=none;align=center;verticalAlign=middle;whiteSpace=wrap;rounded=0;" vertex="1" parent="Irn_uy4zuBTAPK6WRNLf-541">
          <mxGeometry x="573" y="919" width="40" height="20" as="geometry" />
        </mxCell>
        <mxCell id="Irn_uy4zuBTAPK6WRNLf-701" value="" style="group" vertex="1" connectable="0" parent="Irn_uy4zuBTAPK6WRNLf-541">
          <mxGeometry x="583" y="965" width="80" height="85" as="geometry" />
        </mxCell>
        <mxCell id="Irn_uy4zuBTAPK6WRNLf-702" value="1" style="text;html=1;strokeColor=none;fillColor=none;align=center;verticalAlign=middle;whiteSpace=wrap;rounded=0;" vertex="1" parent="Irn_uy4zuBTAPK6WRNLf-701">
          <mxGeometry x="40" y="102" width="40" height="20" as="geometry" />
        </mxCell>
        <mxCell id="Irn_uy4zuBTAPK6WRNLf-703" value="1" style="text;html=1;strokeColor=none;fillColor=none;align=center;verticalAlign=middle;whiteSpace=wrap;rounded=0;" vertex="1" parent="Irn_uy4zuBTAPK6WRNLf-701">
          <mxGeometry y="1" width="40" height="20" as="geometry" />
        </mxCell>
        <mxCell id="Irn_uy4zuBTAPK6WRNLf-704" value="" style="group" vertex="1" connectable="0" parent="Irn_uy4zuBTAPK6WRNLf-541">
          <mxGeometry x="268" y="850" width="555" height="270" as="geometry" />
        </mxCell>
        <mxCell id="Irn_uy4zuBTAPK6WRNLf-705" value="1" style="text;html=1;strokeColor=none;fillColor=none;align=center;verticalAlign=middle;whiteSpace=wrap;rounded=0;" vertex="1" parent="Irn_uy4zuBTAPK6WRNLf-704">
          <mxGeometry x="2" y="250" width="40" height="20" as="geometry" />
        </mxCell>
        <mxCell id="Irn_uy4zuBTAPK6WRNLf-706" value="1" style="text;html=1;strokeColor=none;fillColor=none;align=center;verticalAlign=middle;whiteSpace=wrap;rounded=0;" vertex="1" parent="Irn_uy4zuBTAPK6WRNLf-704">
          <mxGeometry x="515" width="40" height="20" as="geometry" />
        </mxCell>
        <mxCell id="Irn_uy4zuBTAPK6WRNLf-707" value="" style="endArrow=diamondThin;endFill=1;endSize=24;html=1;fontColor=#FF3333;entryX=0.25;entryY=0;entryDx=0;entryDy=0;exitX=0.5;exitY=0;exitDx=0;exitDy=0;" edge="1" parent="Irn_uy4zuBTAPK6WRNLf-704">
          <mxGeometry width="160" relative="1" as="geometry">
            <mxPoint y="270" as="sourcePoint" />
            <mxPoint x="550" y="50" as="targetPoint" />
            <Array as="points">
              <mxPoint />
              <mxPoint x="550" />
            </Array>
          </mxGeometry>
        </mxCell>
        <mxCell id="Irn_uy4zuBTAPK6WRNLf-708" value="" style="endArrow=diamondThin;endFill=0;endSize=24;html=1;fontColor=#FF3333;exitX=0.75;exitY=0;exitDx=0;exitDy=0;entryX=0;entryY=0.5;entryDx=0;entryDy=0;" edge="1" parent="Irn_uy4zuBTAPK6WRNLf-541" source="Irn_uy4zuBTAPK6WRNLf-604" target="Irn_uy4zuBTAPK6WRNLf-591">
          <mxGeometry width="160" relative="1" as="geometry">
            <mxPoint x="533" y="1140" as="sourcePoint" />
            <mxPoint x="693" y="1140" as="targetPoint" />
            <Array as="points">
              <mxPoint x="548" y="1156" />
            </Array>
          </mxGeometry>
        </mxCell>
        <mxCell id="Irn_uy4zuBTAPK6WRNLf-709" value="" style="endArrow=diamondThin;endFill=1;endSize=24;html=1;fontColor=#FF3333;exitX=0.5;exitY=0;exitDx=0;exitDy=0;entryX=0.45;entryY=1.024;entryDx=0;entryDy=0;entryPerimeter=0;" edge="1" parent="Irn_uy4zuBTAPK6WRNLf-541" source="Irn_uy4zuBTAPK6WRNLf-612" target="Irn_uy4zuBTAPK6WRNLf-591">
          <mxGeometry width="160" relative="1" as="geometry">
            <mxPoint x="763" y="1280" as="sourcePoint" />
            <mxPoint x="923" y="1280" as="targetPoint" />
            <Array as="points">
              <mxPoint x="863" y="1280" />
              <mxPoint x="694" y="1280" />
            </Array>
          </mxGeometry>
        </mxCell>
        <mxCell id="Irn_uy4zuBTAPK6WRNLf-710" value="" style="endArrow=diamondThin;endFill=1;endSize=24;html=1;fontColor=#FF3333;entryX=1;entryY=0.5;entryDx=0;entryDy=0;exitX=0.25;exitY=0;exitDx=0;exitDy=0;" edge="1" parent="Irn_uy4zuBTAPK6WRNLf-541" source="Irn_uy4zuBTAPK6WRNLf-589" target="Irn_uy4zuBTAPK6WRNLf-611">
          <mxGeometry width="160" relative="1" as="geometry">
            <mxPoint x="703" y="1050" as="sourcePoint" />
            <mxPoint x="572" y="952" as="targetPoint" />
            <Array as="points">
              <mxPoint x="658" y="965" />
              <mxPoint x="603" y="965" />
            </Array>
          </mxGeometry>
        </mxCell>
        <mxCell id="Irn_uy4zuBTAPK6WRNLf-711" value="Communicates" style="endArrow=open;endSize=12;html=1;exitX=1;exitY=0.5;exitDx=0;exitDy=0;entryX=0;entryY=0.5;entryDx=0;entryDy=0;" edge="1" parent="Irn_uy4zuBTAPK6WRNLf-541" source="Irn_uy4zuBTAPK6WRNLf-601" target="Irn_uy4zuBTAPK6WRNLf-585">
          <mxGeometry x="0.0213" width="160" relative="1" as="geometry">
            <mxPoint x="1060" y="1030" as="sourcePoint" />
            <mxPoint x="1220" y="1030" as="targetPoint" />
            <Array as="points">
              <mxPoint x="970" y="939" />
              <mxPoint x="970" y="1016" />
              <mxPoint x="1160" y="1016" />
              <mxPoint x="1160" y="1046" />
            </Array>
            <mxPoint as="offset" />
          </mxGeometry>
        </mxCell>
        <mxCell id="Irn_uy4zuBTAPK6WRNLf-688" value="" style="endArrow=diamondThin;endFill=1;endSize=24;html=1;exitX=0;exitY=0.5;exitDx=0;exitDy=0;entryX=1;entryY=0.25;entryDx=0;entryDy=0;" edge="1" parent="Irn_uy4zuBTAPK6WRNLf-541" source="Irn_uy4zuBTAPK6WRNLf-605" target="Irn_uy4zuBTAPK6WRNLf-602">
          <mxGeometry width="160" relative="1" as="geometry">
            <mxPoint x="583" y="1285" as="sourcePoint" />
            <mxPoint x="343" y="1143" as="targetPoint" />
            <Array as="points">
              <mxPoint x="403" y="1259" />
              <mxPoint x="403" y="1133" />
            </Array>
          </mxGeometry>
        </mxCell>
        <mxCell id="Irn_uy4zuBTAPK6WRNLf-667" value="" style="endArrow=diamondThin;endFill=0;endSize=24;html=1;fontColor=#FF3333;entryX=0.5;entryY=0;entryDx=0;entryDy=0;" edge="1" parent="Irn_uy4zuBTAPK6WRNLf-541" source="Irn_uy4zuBTAPK6WRNLf-606" target="Irn_uy4zuBTAPK6WRNLf-607">
          <mxGeometry width="160" relative="1" as="geometry">
            <mxPoint x="483" y="1330" as="sourcePoint" />
            <mxPoint x="513" y="1380" as="targetPoint" />
          </mxGeometry>
        </mxCell>
        <mxCell id="Irn_uy4zuBTAPK6WRNLf-680" value="" style="endArrow=diamondThin;endFill=1;endSize=24;html=1;exitX=0;exitY=0.5;exitDx=0;exitDy=0;entryX=1;entryY=0.25;entryDx=0;entryDy=0;" edge="1" parent="Irn_uy4zuBTAPK6WRNLf-541" source="Irn_uy4zuBTAPK6WRNLf-606" target="Irn_uy4zuBTAPK6WRNLf-626">
          <mxGeometry width="160" relative="1" as="geometry">
            <mxPoint x="504" y="1304" as="sourcePoint" />
            <mxPoint x="353" y="1233" as="targetPoint" />
            <Array as="points">
              <mxPoint x="383" y="1285" />
              <mxPoint x="383" y="1233" />
            </Array>
          </mxGeometry>
        </mxCell>
      </root>
    </mxGraphModel>
  </diagram>
</mxfile>
